<!DOCTYPE svg PUBLIC "-//W3C//DTD SVG 1.1//EN" "http://www.w3.org/Graphics/SVG/1.1/DTD/svg11.dtd" [
	<!ENTITY st0 "fill:#010101;">
	<!ENTITY st1 "fill:#808080;">
	<!ENTITY st2 "fill:#FFFFFF;">
	<!ENTITY st3 "fill:#003DA6;">
	<!ENTITY st4 "fill:#DD0031;">
]>
<svg xmlns="http://www.w3.org/2000/svg" viewBox="0 0 250 90" style="enable-background:new 0 0 250 90"><g><path style="&st0;" d="M12.1,33.8H1.2H0V35v6.9v1.2h1.2h10.9c5.3,0,10.3,2,14,5.7c3.7,3.7,5.7,8.7,5.7,14v11v1.2H33h6.9h1.2v-1.2 v-11c0-7.8-3-15.1-8.5-20.6C27.2,36.8,19.9,33.8,12.1,33.8z"/><path style="&st0;" d="M56.2,44.8c-2.5-5.9-6-11.1-10.5-15.6c-4.5-4.5-9.7-8-15.6-10.5c-6-2.5-12.4-3.8-19-3.8H1.2H0v1.2V23v1.2 h1.2h9.9c5.4,0,10.6,1,15.4,3.1c4.7,2,9,4.8,12.6,8.5c3.6,3.6,6.5,7.9,8.5,12.6c2.1,4.9,3.1,10.1,3.1,15.4v9.9v1.2h1.2h6.9H60v-1.2 v-9.9C60,57.2,58.7,50.8,56.2,44.8z"/><path style="&st0;" d="M13.2,61.9c-2.4-2.4-3.9-5.6-4.1-9l-0.1-1.1H7.8H1.2H0V53v0.1C0,59,2.3,64.5,6.4,68.6 c4.1,4.1,9.7,6.4,15.6,6.4h0.2h1.2v-1.2v-6.6v-1.1l-1.1-0.1C18.8,65.8,15.6,64.4,13.2,61.9z"/></g></svg>
