<?xml version="1.0" encoding="utf-8"?>
<!-- Generator: Adobe Illustrator 21.1.0, SVG Export Plug-In . SVG Version: 6.00 Build 0)  -->
<!DOCTYPE svg PUBLIC "-//W3C//DTD SVG 1.1//EN" "http://www.w3.org/Graphics/SVG/1.1/DTD/svg11.dtd" [
	<!ENTITY st0 "fill:#010101;">
	<!ENTITY st1 "fill:#808080;">
	<!ENTITY st2 "fill:#FFFFFF;">
	<!ENTITY st3 "fill:#003DA6;">
	<!ENTITY st4 "fill:#DD0031;">
]>
<svg version="1.1" id="Layer_1" xmlns="http://www.w3.org/2000/svg" xmlns:xlink="http://www.w3.org/1999/xlink" x="0px" y="0px" viewBox="0 0 250 90" style="enable-background:new 0 0 250 90;" xml:space="preserve">
<g>
	<g>
		<path style="&st0;" d="M11.7,34.2H1.2H0v1.2V42v1.2h1.2h10.5c5.2,0,10,2,13.6,5.6c3.6,3.6,5.6,8.4,5.6,13.6v10.6v1.2H32h6.7h1.2 v-1.2V62.3c0-7.5-2.9-14.6-8.2-19.9C26.3,37.1,19.2,34.2,11.7,34.2z"/>
		<path style="&st0;" d="M54.4,44.8c-2.4-5.7-5.8-10.7-10.1-15.1c-4.3-4.3-9.4-7.8-15.1-10.2c-5.8-2.5-12-3.7-18.4-3.7H1.2H0V17v6.7 v1.2h1.2h9.6c5.2,0,10.2,1,15,3c4.6,1.9,8.7,4.7,12.2,8.2c3.5,3.5,6.3,7.6,8.2,12.2c2,4.7,3,9.8,3,15v9.6V74h1.2h6.7h1.2v-1.2 v-9.6C58.1,56.8,56.8,50.6,54.4,44.8z"/>
		<path style="&st0;" d="M12.7,61.4C10.4,59,9,56,8.7,52.6l-0.1-1.1H7.6H1.2H0v1.2v0.1c0,5.7,2.2,11.1,6.2,15.1 c4,4,9.4,6.2,15.1,6.2h0.2h1.2v-1.2v-6.4v-1.1l-1.1-0.1C18.2,65.1,15.1,63.7,12.7,61.4z"/>
	</g>
	<g>
		<path d="M84.9,72.2c-1,1.3-2.7,1.9-4.7,1.9c-3.1,0-5-1.9-5-4.4c0-2.6,2-4.3,5.4-4.3h4.3v-0.4c0-1.8-1.2-2.9-3.4-2.9 c-1.4,0-2.8,0.5-4.2,1.5L76,61.3c2-1.2,3.4-1.8,6.2-1.8c3.7,0,5.8,1.9,5.8,5l0,9.4h-3V72.2z M84.9,68.9v-1.3H81c-2,0-3,0.5-3,1.9 c0,1.3,1.1,2.1,2.8,2.1C83.1,71.7,84.8,70.5,84.9,68.9z"/>
		<path d="M103.3,61.9l-1.7,2c-1-1-2.4-1.6-4.1-1.6c-2.5,0-4.3,1.9-4.3,4.6c0,2.7,1.8,4.6,4.3,4.6c1.8,0,3.3-0.6,4.2-1.7l1.7,1.7 c-1.3,1.7-3.4,2.7-6.1,2.7c-4.3,0-7.2-2.9-7.2-7.2c0-4.3,3-7.3,7.2-7.3C99.9,59.5,101.9,60.4,103.3,61.9z"/>
		<path d="M117.2,61.9l-1.7,2c-1-1-2.4-1.6-4.1-1.6c-2.5,0-4.3,1.9-4.3,4.6c0,2.7,1.8,4.6,4.3,4.6c1.8,0,3.3-0.6,4.2-1.7l1.7,1.7 c-1.3,1.7-3.4,2.7-6.1,2.7c-4.3,0-7.2-2.9-7.2-7.2c0-4.3,3-7.3,7.2-7.3C113.9,59.5,115.9,60.4,117.2,61.9z"/>
		<path d="M132,68h-10.8c0.5,2.2,2.2,3.6,4.4,3.6c1.6,0,3-0.6,4-1.7l1.6,1.8c-1.4,1.5-3.4,2.4-5.9,2.4c-4.4,0-7.3-2.9-7.3-7.2 c0-4.3,3-7.3,7.2-7.3C130.3,59.5,132.4,62.8,132,68z M129.3,65.7c-0.1-2.3-1.6-3.7-4-3.7c-2.3,0-3.9,1.4-4.2,3.7H129.3z"/>
		<path d="M143.8,61l-1.1,2.3c-1.3-0.8-2.9-1.3-4.1-1.3c-1.2,0-2.1,0.4-2.1,1.4c0,2.6,7.6,1.2,7.6,6.4c0,2.9-2.6,4.3-5.5,4.3 c-2.1,0-4.3-0.7-5.8-2l1.1-2.2c1.2,1.1,3.2,1.8,4.8,1.8c1.3,0,2.3-0.5,2.3-1.5c0-2.9-7.5-1.3-7.5-6.5c0-2.9,2.5-4.1,5.3-4.1 C140.6,59.5,142.6,60,143.8,61z"/>
		<path d="M155.8,61l-1.1,2.3c-1.3-0.8-2.9-1.3-4.1-1.3c-1.2,0-2.1,0.4-2.1,1.4c0,2.6,7.6,1.2,7.6,6.4c0,2.9-2.6,4.3-5.5,4.3 c-2.1,0-4.3-0.7-5.8-2l1.1-2.2c1.2,1.1,3.2,1.8,4.8,1.8c1.3,0,2.3-0.5,2.3-1.5c0-2.9-7.5-1.3-7.5-6.5c0-2.9,2.5-4.1,5.3-4.1 C152.6,59.5,154.5,60,155.8,61z"/>
		<path d="M186.7,65.1V74h-3.1v-8.1c0-2.2-1.3-3.5-3.4-3.5c-2.5,0.1-3.9,2-3.9,4.5V74h-3.1v-8.1c0-2.2-1.3-3.5-3.4-3.5 c-2.5,0.1-4,2-4,4.5V74h-3.1V59.6h3.1v2.8c1-2,2.8-2.9,5.2-2.9c2.6,0,4.3,1.3,5,3.4c0.9-2.4,2.8-3.4,5.4-3.4 C184.8,59.5,186.7,61.6,186.7,65.1z"/>
		<path d="M203.8,66.8c0,4.3-3,7.3-7.5,7.3c-4.4,0-7.5-3-7.5-7.3c0-4.3,3-7.3,7.5-7.3C200.8,59.5,203.8,62.5,203.8,66.8z M192,66.8 c0,2.8,1.8,4.7,4.4,4.7c2.6,0,4.4-1.9,4.4-4.7c0-2.7-1.8-4.6-4.4-4.6C193.8,62.2,192,64.1,192,66.8z"/>
		<path d="M221.5,66.9c0,4.3-2.7,7.2-6.8,7.2c-2.3,0-4-0.9-5.1-2.6V74h-3.1V54h3.1v8.1c1.1-1.7,2.8-2.6,5-2.6 C218.7,59.5,221.5,62.5,221.5,66.9z M218.4,66.8c0-2.7-1.8-4.6-4.4-4.6c-2.6,0-4.4,1.9-4.4,4.6c0,2.8,1.8,4.7,4.4,4.7 C216.6,71.4,218.4,69.5,218.4,66.8z"/>
		<path d="M227.4,55.5c0,1.1-0.8,1.9-1.8,1.9c-1,0-1.8-0.8-1.8-1.9c0-1.1,0.8-1.9,1.8-1.9C226.6,53.7,227.4,54.4,227.4,55.5z M224,74V59.6h3.1V74H224z"/>
		<path d="M231.2,74V54h3.1v20H231.2z"/>
		<path d="M250.9,68h-10.8c0.5,2.2,2.2,3.6,4.4,3.6c1.6,0,3-0.6,4-1.7l1.6,1.8c-1.4,1.5-3.4,2.4-5.9,2.4c-4.4,0-7.3-2.9-7.3-7.2 c0-4.3,3-7.3,7.2-7.3C249.2,59.5,251.3,62.8,250.9,68z M248.2,65.7c-0.1-2.3-1.6-3.7-4-3.7c-2.3,0-3.9,1.4-4.2,3.7H248.2z"/>
	</g>
</g>
</svg>
