<svg xmlns="http://www.w3.org/2000/svg" viewBox="0 0 75.56 76.82"><title>Asset 6</title><g id="Layer_2" data-name="Layer 2"><g id="Layer_1-2" data-name="Layer 1"><path d="M44.59,39.49a6.36,6.36,0,1,1-6.36,6.36,6.36,6.36,0,0,1,6.36-6.36m0-6.64a13,13,0,1,0,13,13,13,13,0,0,0-13-13Z"/><path d="M44.59,47a1.12,1.12,0,0,1-.79-.33L18.59,21a1.11,1.11,0,0,1,1.58-1.55L45.38,45.07a1.1,1.1,0,0,1,0,1.56A1.09,1.09,0,0,1,44.59,47Z"/><path d="M20.36,21.35,8.7,21.27,0,12.57,12.23,12,12.39,0l8.83,8.83ZM9.62,19.07l8.68.05.64-9.44L14.53,5.27l-.12,8.79-9.32.47Z"/><path d="M44.59,14.88a30.81,30.81,0,0,0-19.22,6.69l5.09,5.17a23.79,23.79,0,1,1-1.72,1.4L23.68,23a31,31,0,1,0,20.91-8.13Z"/></g></g></svg>