<!DOCTYPE svg PUBLIC "-//W3C//DTD SVG 1.1//EN" "http://www.w3.org/Graphics/SVG/1.1/DTD/svg11.dtd" [
	<!ENTITY st0 "fill:#010101;">
	<!ENTITY st1 "fill:#808080;">
	<!ENTITY st2 "fill:#FFFFFF;">
	<!ENTITY st3 "fill:#003DA6;">
	<!ENTITY st4 "fill:#DD0031;">
]><svg xmlns="http://www.w3.org/2000/svg" viewBox="0 0 250 90" enable-background="new 0 0 250 90"><path d="M0 51.8c0-5.2 3.9-9.4 9.4-9.4 2.8 0 4.6.8 6.2 2.1.3.3.6.7.6 1.3 0 .9-.7 1.6-1.6 1.6-.4 0-.8-.2-1-.3-1.2-1-2.6-1.6-4.3-1.6-3.4 0-6 2.9-6 6.4v.1c0 3.6 2.5 6.4 6 6.4 1.9 0 3.2-.6 4.5-1.7.2-.2.6-.4 1-.4.8 0 1.5.7 1.5 1.5 0 .5-.2.9-.5 1.1-1.7 1.5-3.7 2.4-6.6 2.4-5.3-.1-9.2-4.3-9.2-9.5zm25.3-7.7c0-.9.7-1.6 1.6-1.6.9 0 1.6.7 1.6 1.6v15.3c0 .9-.7 1.6-1.6 1.6-.9 0-1.6-.7-1.6-1.6v-15.3zm13.2.2c0-.9.7-1.6 1.6-1.6h6.5c2.3 0 4.1.7 5.2 1.8 1 1 1.5 2.3 1.5 3.9v.1c0 2.9-1.7 4.7-4.1 5.4l3.5 4.4c.3.4.5.7.5 1.2 0 .9-.8 1.5-1.5 1.5s-1.2-.3-1.6-.8l-4.4-5.6h-4v4.9c0 .9-.7 1.6-1.6 1.6-.9 0-1.6-.7-1.6-1.6v-15.2zm7.9 7.4c2.3 0 3.7-1.2 3.7-3v-.1c0-1.9-1.4-3-3.8-3h-4.6v6.1h4.7zm16-7.4c0-.9.7-1.6 1.6-1.6h6.5c2.3 0 4.1.7 5.2 1.8 1 1 1.5 2.3 1.5 3.9v.1c0 2.9-1.7 4.7-4.1 5.4l3.5 4.4c.3.4.5.7.5 1.2 0 .9-.8 1.5-1.5 1.5s-1.2-.3-1.6-.8l-4.4-5.6h-4v4.9c0 .9-.7 1.6-1.6 1.6-.9 0-1.6-.7-1.6-1.6v-15.2zm7.9 7.4c2.3 0 3.7-1.2 3.7-3v-.1c0-1.9-1.4-3-3.8-3h-4.6v6.1h4.7zm15.8 1.5v-9c0-.9.7-1.6 1.6-1.6.9 0 1.6.7 1.6 1.6v8.8c0 3.4 1.7 5.2 4.6 5.2 2.8 0 4.6-1.7 4.6-5v-9c0-.9.7-1.6 1.6-1.6.9 0 1.6.7 1.6 1.6v8.8c0 5.4-3.1 8.2-7.8 8.2-4.8-.1-7.8-2.8-7.8-8zm24.6 5.6c-.4-.3-.6-.7-.6-1.2 0-.8.7-1.5 1.5-1.5.4 0 .7.1.9.3 1.5 1.2 3.1 1.9 5.1 1.9 2 0 3.2-.9 3.2-2.3 0-1.3-.7-2-4.1-2.8-3.9-.9-6-2.1-6-5.4v-.1c0-3.1 2.6-5.3 6.2-5.3 2.3 0 4.1.6 5.8 1.7.4.2.7.6.7 1.3 0 .8-.7 1.5-1.5 1.5-.3 0-.6-.1-.8-.2-1.4-.9-2.7-1.4-4.2-1.4-1.9 0-3 1-3 2.2v.1c0 1.4.8 2 4.3 2.9 3.8.9 5.8 2.3 5.8 5.3v.1c0 3.4-2.7 5.4-6.5 5.4-2.4-.2-4.8-1-6.8-2.5zm72.9-23.9c-1 0-1.5-.1-1.5-.1 0-6.9-6.5-12.5-13.4-12.5s-13.4 5.6-13.4 12.5h-3.6c0-2.2.4-4.3 1.1-6.3-.6-.1-1.1-.2-1.7-.2-5.1 0-9.2 4.1-9.2 9.2 0 .7.1 1.5.3 2.2l.6 2.2-2.1.9c-4.7 2.2-7.7 6.9-7.7 12 0 7.1 5.8 12.9 12.9 12.9h37.7c9 0 16.4-7.4 16.4-16.4 0-9-7.4-16.4-16.4-16.4zm-16.3 24c0 1.2-1 2.2-2.2 2.2-1.2 0-2.1-1-2.1-2.2v-9.8l-3.8 5.8c-.4.7-1 1.1-1.8 1.1s-1.3-.4-1.8-1.1l-3.7-5.8v9.8c0 1.2-1 2.1-2.1 2.1-1.2 0-2.1-.9-2.1-2.1v-15.7c0-1.2 1-2.2 2.2-2.2h.5c.9 0 1.6.5 2 1.1l5.2 8.5 5.3-8.5c.4-.7 1.1-1.1 1.9-1.1h.5c1.2 0 2.2 1 2.2 2.2v15.7zm23.5-7.9c0 5.5-4.3 9.8-10.4 9.8h-5.5c-1.2 0-2.2-1-2.2-2.2v-15.2c0-1.2 1-2.2 2.2-2.2h5.5c6.1 0 10.4 4.2 10.4 9.8zm-10.5-6.2h-3.6v12.3h3.6c3.7 0 6.2-2.5 6.2-6.2 0-3.6-2.5-6.1-6.2-6.1z"/></svg>