<!DOCTYPE svg PUBLIC "-//W3C//DTD SVG 1.1//EN" "http://www.w3.org/Graphics/SVG/1.1/DTD/svg11.dtd" [
	<!ENTITY st0 "fill:#010101;">
	<!ENTITY st1 "fill:#808080;">
	<!ENTITY st2 "fill:#FFFFFF;">
	<!ENTITY st3 "fill:#003DA6;">
	<!ENTITY st4 "fill:#DD0031;">
]>
<svg xmlns="http://www.w3.org/2000/svg" viewBox="0 0 250 90" enable-background="new 0 0 250 90">
<g>
	<path style="&st0;" d="M31.7,32.5c0,10.6-7.9,19-18.9,19H1.6v-38h11.3C23.8,13.5,31.7,21.9,31.7,32.5z M27.2,32.5 c0-8.5-5.4-15-14.3-15H6.2v30h6.7C21.8,47.5,27.2,40.9,27.2,32.5z"/>
	<path style="&st0;" d="M72.3,47.4v4.1H48v-38h23.6v4.1H52.7v12.8h13.6v4.1H52.7v13H72.3z"/>
	<path style="&st0;" d="M119.3,51.8h-0.2L93.7,23.7v27.8h-4.6V13.2h0.2l25.5,28.2V13.5h4.6V51.8z"/>
	<path style="&st0;" d="M152,51.4h-0.8l-16.7-38h1.7l15.4,35.1L167,13.5h1.7L152,51.4z"/>
	<path style="&st0;" d="M206.7,50v1.5h-22.8v-38h22.2v1.5h-20.5v16.6h15.2v1.5h-15.2V50H206.7z"/>
	<path style="&st0;" d="M248.2,51.4l-11.3-15c-0.5,0.1-0.9,0.1-1.4,0.1h-10.4v14.9h-1.6v-38h11.9c7.8,0,12.7,5.2,12.7,11.5 c0,5.5-3.7,10.1-9.7,11.3L250,51.4H248.2z M235.6,35.1c7,0,10.9-3.9,10.9-10.1c0-6.3-3.9-10.1-10.9-10.1h-10.5v20.2H235.6z"/>
	<g>
		<path style="&st0;" d="M7,68.6l-0.8,0.3c-0.4-0.8-1.3-1.6-2.6-1.6c-1.4,0-2.3,0.7-2.3,1.7c0,1,0.7,1.4,1.7,1.8l1.2,0.4 c1.6,0.5,2.8,1.3,2.8,2.9c0,1.7-1.7,2.7-3.5,2.7c-1.7,0-3.1-1-3.6-2.4l0.8-0.3C1.2,75.2,2.3,76,3.6,76c1.3,0,2.6-0.7,2.6-1.9 c0-1.2-1-1.7-2.1-2.1l-1.3-0.4c-1.4-0.5-2.4-1.2-2.4-2.6c0-1.4,1.4-2.5,3.2-2.5C5.3,66.5,6.5,67.5,7,68.6z"/>
		<path style="&st0;" d="M16.7,67.4h-3v9.3h-0.9v-9.3h-3v-0.8h4h3V67.4z"/>
		<path style="&st0;" d="M25,73.8h-4.8l-1.3,3h-1l4.7-10.2h0.1l4.7,10.2h-1L25,73.8z M24.6,73l-2.1-4.7L20.5,73H24.6z"/>
		<path style="&st0;" d="M36.5,76.7l-2.8-3.8h-0.2h-2.4v3.8h-0.9V66.6h3.3c2.2,0,3.5,1.4,3.5,3.2c0,1.4-0.9,2.6-2.3,3l2.9,4H36.5z M31.1,72.1h2.4c1.6,0,2.6-0.9,2.6-2.4c0-1.5-0.9-2.3-2.6-2.3h-2.4V72.1z"/>
		<path style="&st0;" d="M46.8,67.4h-3v9.3h-0.9v-9.3h-3v-0.8h4h3V67.4z"/>
		<path style="&st0;" d="M57.8,72.9c0,2.4-1.6,3.9-3.8,3.9c-2.2,0-3.8-1.5-3.8-3.9v-6.3h0.9v6.3c0,2,1.2,3.1,2.9,3.1 c1.8,0,2.9-1.1,2.9-3.1v-6.3h0.9V72.9z"/>
		<path style="&st0;" d="M68,69.8c0,1.8-1.3,3.2-3.5,3.2h-2.4v3.8h-0.9V66.6h3.3C66.7,66.6,68,68,68,69.8z M67.1,69.8 c0-1.5-0.9-2.3-2.6-2.3h-2.4v4.7h2.4C66.1,72.1,67.1,71.3,67.1,69.8z"/>
		<path style="&st0;" d="M84.7,76.7h-0.2l-3.2-8.2L78,76.7h-0.2l-3.4-10.1h1l2.7,8l3.2-8h0.2l3.2,8l2.7-8h1L84.7,76.7z"/>
		<path style="&st0;" d="M97.6,75.9v0.8h-6.3V66.6h6.1v0.8h-5.2v3.8H96v0.8h-3.8v3.9H97.6z"/>
		<path style="&st0;" d="M107.3,75.9v0.8H101V66.6h6.1v0.8h-5.2v3.8h3.8v0.8h-3.8v3.9H107.3z"/>
		<path style="&st0;" d="M114.4,71.5l4.9,5.2h-1.2l-4.3-4.6l-1.9,2v2.6h-0.9V66.6h0.9v6.3l6-6.3h1.2L114.4,71.5z"/>
	</g>
</g>
</svg>
