<!DOCTYPE svg PUBLIC "-//W3C//DTD SVG 1.1//EN" "http://www.w3.org/Graphics/SVG/1.1/DTD/svg11.dtd" [
	<!ENTITY st0 "fill:#010101;">
	<!ENTITY st1 "fill:#808080;">
	<!ENTITY st2 "fill:#FFFFFF;">
	<!ENTITY st3 "fill:#003DA6;">
	<!ENTITY st4 "fill:#DD0031;">
]>
<svg xmlns="http://www.w3.org/2000/svg" viewBox="0 0 250 90" enable-background="new 0 0 250 90;">
<g>
	<g>
		<path style="&st0;" d="M1.2,47.9c-0.8,0-1.2-0.2-1.2-0.7c0-0.4,0.2-0.8,0.6-1.3c0.4-0.5,1-1,1.6-1.5c0.6-0.5,1.4-0.9,2.2-1.3
			c0.8-0.4,1.7-0.5,2.5-0.5h2.7c1-1.9,1.9-3.8,2.9-5.7c1-1.8,2-3.7,2.9-5.4c-2,0-4,0.1-6,0.1c-2,0-3.6,0-5,0c-1,0-1.5-0.3-1.5-0.8
			c0-0.3,0.2-0.7,0.6-1.2c0.4-0.5,0.9-0.9,1.5-1.3c0.6-0.4,1.4-0.8,2.1-1.1c0.8-0.3,1.6-0.5,2.4-0.6c2-0.2,4.7-0.3,8.1-0.4
			c3.4-0.1,6.9-0.1,10.5-0.1c2.4,0,39.5,0,41.7,0c2.2,0,4.1,0,5.7,0.1c0.6,0,1,0.2,1,0.5c0,0.3-0.3,0.7-0.8,1.1
			c-0.5,0.4-1.2,0.9-2,1.3c-0.8,0.4-1.8,0.8-2.9,1.2c-1.1,0.4-2.3,0.6-3.5,0.6c-0.7,0.1-1.7,0.1-3.1,0.2c-1.4,0-37.8,0.1-39.6,0.1
			c-1,1.8-1.9,3.7-2.9,5.6c-1,1.9-1.9,3.8-2.8,5.7h10.4c1.2,0,1.8,0.2,1.8,0.6c0,0.3-0.2,0.6-0.6,1c-0.4,0.4-1,0.7-1.6,1.1
			c-0.6,0.4-1.2,0.6-1.9,0.9c-0.6,0.2-1.2,0.4-1.6,0.4L17,47c-1.1,2.3-2.1,4.6-2.9,7c-0.9,2.3-1.7,4.6-2.5,6.9
			c-0.2,0.4-0.6,0.8-1.2,1.1c-0.6,0.4-1.4,0.7-2.2,1c-0.9,0.3-1.8,0.5-2.8,0.7c-1,0.2-2,0.3-2.8,0.3c-1.1,0-1.6-0.4-1.6-1.2
			c0-0.3,0.1-0.6,0.2-0.9c0.8-2.2,1.7-4.5,2.8-6.9c1-2.4,2.2-4.9,3.3-7.4L1.2,47.9z"/>
		<path style="&st0;" d="M39.4,40.1c1.6,0,3,0.2,4.2,0.6c1.2,0.4,2.1,0.9,2.8,1.6c0.7,0.7,1.3,1.4,1.6,2.3c0.3,0.9,0.5,1.8,0.5,2.9
			c0,1.8-0.4,3.6-1.3,5.6s-2.1,3.7-3.7,5.3c-1.6,1.6-3.4,2.9-5.5,4c-2.1,1.1-4.3,1.6-6.7,1.6c-1.6,0-3-0.2-4.1-0.6
			c-1.1-0.4-2-0.9-2.7-1.6c-0.7-0.7-1.2-1.4-1.5-2.3c-0.3-0.9-0.5-1.8-0.5-2.9c0-1.8,0.4-3.6,1.3-5.5c0.9-1.9,2.1-3.7,3.6-5.3
			c1.5-1.6,3.3-3,5.4-4C34.8,40.7,37,40.1,39.4,40.1z M32.8,59.5c0.9,0,1.8-0.4,2.7-1.2c0.9-0.8,1.7-1.8,2.5-3.1
			c0.7-1.2,1.3-2.5,1.8-3.9c0.5-1.4,0.7-2.6,0.7-3.8c0-0.9-0.2-1.6-0.6-2.2c-0.4-0.6-1-0.8-1.9-0.8c-0.9,0-1.8,0.4-2.7,1.2
			c-0.9,0.8-1.7,1.9-2.5,3.1c-0.7,1.2-1.3,2.6-1.8,4c-0.5,1.4-0.7,2.6-0.7,3.7c0,0.9,0.2,1.6,0.6,2.1C31.3,59.3,31.9,59.5,32.8,59.5
			z"/>
		<path style="&st0;" d="M54.5,61.4c-0.2,0.4-0.6,0.8-1.1,1.1c-0.5,0.3-1.1,0.6-1.7,0.8c-0.6,0.2-1.3,0.4-2,0.5
			c-0.7,0.1-1.4,0.2-2,0.2c-0.8,0-1.4-0.1-1.8-0.4c-0.4-0.2-0.5-0.6-0.3-1c0.8-1.7,1.6-3.6,2.5-5.8c0.8-2.1,1.6-4.1,2.3-6
			c0.7-1.9,1.3-3.6,1.9-5c0.5-1.4,0.8-2.3,0.9-2.7c0.2-0.4,0.5-0.8,1-1.1c0.5-0.3,1-0.6,1.7-0.8c0.6-0.2,1.3-0.4,2-0.5
			c0.7-0.1,1.3-0.2,1.9-0.2c0.8,0,1.4,0.1,1.8,0.4c0.5,0.2,0.6,0.6,0.3,1c-0.8,1.4-1.4,2.7-1.9,3.9c-0.5,1.2-1,2.3-1.5,3.5
			c1.4-1.8,2.7-3.2,4-4.4c1.3-1.2,2.5-2.1,3.7-2.8c1.2-0.7,2.2-1.2,3.2-1.5c1-0.3,1.9-0.4,2.8-0.4c1,0,1.5,0.4,1.5,1.3
			c0,0.5-0.2,1-0.5,1.7c-0.3,0.6-0.8,1.2-1.3,1.8c-0.5,0.6-1.1,1-1.8,1.4c-0.6,0.4-1.3,0.6-2,0.6c-1.2,0-2.5,0.4-3.7,1.1
			c-1.2,0.7-2.4,1.7-3.5,3c-1.1,1.3-2.2,2.8-3.3,4.6C56.3,57.4,55.3,59.3,54.5,61.4z"/>
		<path style="&st0;" d="M77.7,64c-3.5,0-6-0.7-7.5-2c-1.5-1.3-2.3-3-2.3-4.9c0-1.8,0.5-3.6,1.5-5.6c1-2,2.3-3.8,4-5.5
			c1.7-1.7,3.7-3.1,6-4.2c2.3-1.1,4.9-1.7,7.6-1.7c2.3,0,3.9,0.5,5,1.5c1.1,1,1.6,2.2,1.6,3.6c0,1.5-0.5,2.9-1.4,4.2
			c-0.9,1.3-2.2,2.3-3.7,3.2c-1.6,0.9-3.4,1.6-5.6,2.1c-2.1,0.5-4.4,0.7-6.8,0.7c-0.1,1.2,0.2,2.1,0.8,2.7c0.6,0.6,1.6,1,2.9,1
			c1.3,0,2.5-0.1,3.5-0.4c1.1-0.3,2.1-0.7,3-1.1c0.9-0.5,1.8-1,2.5-1.5c0.7-0.5,1.4-1.1,2-1.7c0.5-0.5,1-0.7,1.5-0.7
			c0.9,0,1.3,0.5,1.3,1.6c0,0.9-0.4,1.9-1.3,3.1c-0.3,0.4-0.9,1-1.7,1.6c-0.8,0.6-1.8,1.2-3.1,1.8c-1.3,0.6-2.7,1.1-4.4,1.5
			C81.5,63.8,79.7,64,77.7,64z M84.7,44.9c-0.8,0-1.5,0.2-2.3,0.7c-0.8,0.5-1.5,1.1-2.2,1.7c-0.7,0.7-1.3,1.4-1.8,2.2
			c-0.5,0.8-0.8,1.5-1,2.1c1,0.1,2.1,0,3.1-0.2c1-0.2,2-0.6,2.9-1.1c0.9-0.5,1.6-1.1,2.1-1.7c0.5-0.7,0.8-1.4,0.8-2.3
			c0-0.4-0.1-0.8-0.3-1C85.7,45,85.3,44.9,84.7,44.9z"/>
		<path style="&st0;" d="M98.3,64c-1.4,0-2.5-0.3-3.4-0.9c-0.8-0.6-1.3-1.5-1.3-2.8c0-0.8,0.3-2.1,0.8-3.8c0.6-1.7,1.3-3.6,2.1-5.7
			c0.9-2.1,1.8-4.3,2.9-6.6c1.1-2.3,2.1-4.5,3.1-6.5c1-2.1,1.9-3.9,2.7-5.5c0.8-1.6,1.4-2.8,1.8-3.5c0.5-0.8,1.4-1.5,2.8-1.9
			c1.4-0.5,2.7-0.7,4-0.7c0.9,0,1.6,0.1,2.1,0.4c0.5,0.2,0.6,0.6,0.4,1c-0.3,0.6-0.7,1.5-1.4,2.7c-0.6,1.2-1.3,2.6-2.1,4.1
			c-0.8,1.6-1.6,3.3-2.5,5c-0.9,1.8-1.8,3.6-2.6,5.4c-0.8,1.8-1.6,3.5-2.3,5.2c-0.7,1.7-1.3,3.1-1.7,4.4c-0.5,1.3-0.8,2.3-0.9,3
			c-0.1,0.8,0,1.2,0.4,1.2c1.2,0,2.4-0.4,3.7-1.3c1.3-0.8,2.6-1.9,3.8-3c1.2-1.2,2.3-2.4,3.3-3.6c1-1.2,1.7-2.2,2.2-2.9
			c0.3-0.4,0.7-0.6,1.2-0.6c0.6,0,1.1,0.3,1.6,0.8c0.5,0.5,0.7,1.1,0.7,1.9c0,0.7-0.2,1.3-0.7,1.9c-0.9,1.2-2.1,2.6-3.5,4
			c-1.4,1.5-2.9,2.8-4.7,4.1c-1.7,1.3-3.7,2.3-5.8,3.2C103.1,63.5,100.8,64,98.3,64z"/>
		<path style="&st0;" d="M122.6,58.4c1.2,0,2.4-0.4,3.7-1.3c1.3-0.8,2.6-1.9,3.8-3c1.2-1.2,2.3-2.4,3.3-3.6c1-1.2,1.7-2.2,2.2-2.9
			c0.3-0.4,0.7-0.6,1.2-0.6c0.6,0,1.1,0.3,1.6,0.8c0.5,0.5,0.7,1.1,0.7,1.9c0,0.7-0.2,1.3-0.7,1.9c-0.9,1.2-2.1,2.6-3.5,4
			c-1.4,1.5-2.9,2.8-4.7,4.1c-1.7,1.3-3.7,2.3-5.8,3.2c-2.1,0.8-4.4,1.3-6.8,1.3c-1.5,0-2.7-0.2-3.5-0.6c-0.8-0.4-1.3-1.4-1.3-2.9
			c0-0.7,0.1-1.6,0.3-2.6c0.2-1,0.5-2.3,1-3.7c0.5-1.4,1.1-3,2-4.8c0.9-1.8,2-3.9,3.3-6.1c0.5-0.8,1.4-1.5,2.8-1.9
			c1.4-0.4,2.8-0.6,4.1-0.6c0.9,0,1.6,0.1,2.1,0.3c0.5,0.2,0.6,0.5,0.4,1c-0.4,0.7-0.9,1.7-1.7,3.2c-0.8,1.5-1.6,3-2.4,4.6
			c-0.8,1.6-1.5,3.2-2.1,4.6c-0.6,1.5-0.9,2.6-0.9,3.3C121.9,58.1,122.2,58.4,122.6,58.4z M127.1,38.3c-1.6,0-2.7-0.3-3.4-0.8
			c-0.7-0.5-1-1.1-1-1.8c0-0.5,0.2-1.1,0.5-1.6c0.3-0.6,0.8-1.1,1.4-1.5c0.6-0.5,1.3-0.8,2-1.1c0.8-0.3,1.6-0.4,2.4-0.4
			c1.6,0,2.7,0.3,3.4,0.8c0.7,0.5,1,1.1,1,1.8c0,0.5-0.2,1-0.5,1.6c-0.3,0.6-0.8,1.1-1.4,1.5c-0.6,0.5-1.3,0.8-2.1,1.1
			C128.8,38.2,128,38.3,127.1,38.3z"/>
		<path style="&st0;" d="M161.1,58.4c1.2,0,2.4-0.4,3.7-1.3c1.3-0.8,2.6-1.9,3.8-3c1.2-1.2,2.3-2.4,3.3-3.6c1-1.2,1.7-2.2,2.2-2.9
			c0.3-0.4,0.7-0.6,1.2-0.6c0.6,0,1.1,0.3,1.6,0.8c0.5,0.5,0.7,1.1,0.7,1.9c0,0.7-0.2,1.3-0.7,1.9c-0.9,1.2-2.1,2.6-3.5,4
			c-1.4,1.5-2.9,2.8-4.7,4.1c-1.7,1.3-3.7,2.3-5.8,3.2c-2.1,0.8-4.4,1.3-6.8,1.3c-1.8,0-3-0.3-3.7-1c-0.7-0.7-1-1.6-1-2.8
			c0-1.4,0.4-3.1,1.1-5.1c0.7-2,1.5-4.2,2.4-6.5c-2.2,1.4-4.2,3-6.1,4.8c-1.9,1.8-3.8,3.5-5.5,5c-1.8,1.6-3.4,2.9-4.9,4
			c-1.5,1.1-3,1.6-4.4,1.6c-2.2,0-3.3-0.6-3.3-1.9c0-0.5,0.2-1.3,0.5-2.3c0.3-1,0.7-2.2,1.2-3.4c0.5-1.3,1.1-2.6,1.7-3.9
			c0.6-1.4,1.3-2.6,1.8-3.9c0.6-1.2,1.1-2.3,1.6-3.3c0.5-1,0.8-1.7,1-2.1c0.2-0.4,0.6-0.8,1.2-1.1c0.6-0.3,1.2-0.6,1.8-0.8
			c0.7-0.2,1.4-0.4,2.1-0.5c0.8-0.1,1.5-0.2,2.2-0.2c0.7,0,1.3,0.1,1.7,0.2c0.5,0.2,0.7,0.4,0.7,0.8c0,0.3-0.3,1-0.8,2.1
			c-0.5,1.1-1.2,2.3-1.9,3.6c-0.8,1.3-1.5,2.6-2.3,3.8c-0.8,1.2-1.3,2.2-1.8,2.9c1.3-1.4,2.8-2.9,4.4-4.4c1.6-1.6,3.3-3,5-4.3
			c1.7-1.3,3.5-2.4,5.3-3.3c1.8-0.9,3.6-1.3,5.3-1.3c1.2,0,2,0.3,2.4,0.8c0.4,0.5,0.7,1.2,0.7,2.1c0,1-0.2,2.2-0.7,3.6
			c-0.5,1.4-1,2.7-1.6,4c-0.6,1.3-1.1,2.6-1.6,3.7c-0.5,1.1-0.7,2-0.7,2.7C160.2,58.1,160.5,58.4,161.1,58.4z"/>
		<path style="&st0;" d="M178.2,41.4c0.1,0.9,0.3,1.9,0.6,3c0.3,1.1,0.6,2.2,1.1,3.4c0.7-0.7,1.5-1.4,2.4-2.3
			c0.9-0.8,1.8-1.6,2.7-2.4c0.9-0.7,1.8-1.3,2.8-1.8c0.9-0.5,1.8-0.7,2.5-0.7c0.6,0,1.1,0.1,1.6,0.4c0.5,0.2,0.9,0.5,1.2,0.9
			c0.4,0.4,0.6,0.7,0.8,1.2c0.2,0.4,0.3,0.8,0.3,1.2c0,0.5-0.1,0.9-0.4,1.3c-0.3,0.3-0.8,0.5-1.4,0.5c-0.8,0-1.7,0.2-2.6,0.5
			c-0.9,0.4-1.9,0.8-2.8,1.4c-0.9,0.6-1.8,1.2-2.7,1.9c-0.9,0.7-1.7,1.4-2.4,2.1c0.9,1.8,2.1,3.4,3.5,5c1.4,1.6,3.2,2.9,5.4,4
			c0.5,0.3,0.6,0.6,0.3,0.9c-0.3,0.4-0.9,0.7-1.7,1c-0.8,0.3-1.8,0.6-2.8,0.8c-1.1,0.2-2.1,0.3-3.2,0.3c-1.7,0-3.4-0.7-5.1-2.2
			c-1.7-1.5-3.2-3.5-4.6-6.2c-1,1.1-2.2,2.1-3.4,3.1c-1.2,1-2.6,1.9-4,2.7c-1.4,0.8-3,1.4-4.6,1.9c-1.6,0.5-3.4,0.7-5.2,0.7
			c-0.6,0-1-0.1-1.3-0.4c-0.3-0.3-0.4-0.6-0.4-1c0-0.4,0.1-0.8,0.4-1.4c0.3-0.5,0.6-1,1.1-1.4c0.5-0.4,1-0.8,1.7-1.1
			c0.6-0.3,1.3-0.4,2-0.4h1.3c0.8,0,1.7-0.2,2.6-0.6c0.9-0.4,1.8-1,2.7-1.7c0.9-0.7,1.8-1.5,2.6-2.3c0.8-0.8,1.6-1.7,2.3-2.5
			c-0.3-0.7-0.5-1.4-0.7-2.1c-0.2-0.7-0.4-1.4-0.7-2.2c-0.3-0.9-0.2-1.7,0.2-2.4c0.4-0.8,1-1.4,1.8-2c0.8-0.6,1.6-1,2.5-1.4
			c0.9-0.3,1.7-0.5,2.3-0.5C177.6,40.6,178.1,40.9,178.2,41.4z"/>
	</g>
</g>
</svg>
