<svg xmlns="http://www.w3.org/2000/svg" viewBox="0 0 70.32 77"><title>Asset 8</title><g id="Layer_2" data-name="Layer 2"><g id="Layer_1-2" data-name="Layer 1"><path d="M65.44,69.4a2.72,2.72,0,1,1-2.72,2.71,2.71,2.71,0,0,1,2.72-2.71m0-2.18a4.89,4.89,0,1,0,4.88,4.89,4.89,4.89,0,0,0-4.88-4.89"/><path d="M4.89,69.4a2.72,2.72,0,1,1-2.72,2.71A2.71,2.71,0,0,1,4.89,69.4m0-2.18a4.89,4.89,0,1,0,4.89,4.89,4.89,4.89,0,0,0-4.89-4.89"/><path d="M4.89,2.17A2.72,2.72,0,1,1,2.17,4.89,2.71,2.71,0,0,1,4.89,2.17M4.89,0A4.89,4.89,0,1,0,9.78,4.89,4.89,4.89,0,0,0,4.89,0"/><path d="M35.2,66.23a2.72,2.72,0,1,1-2.71,2.71,2.71,2.71,0,0,1,2.71-2.71m0-2.18a4.89,4.89,0,1,0,4.89,4.89,4.88,4.88,0,0,0-4.89-4.89"/><path d="M62.83,11.66a7.6,7.6,0,0,1-1.75-1l-22.81,52A7,7,0,0,1,40,63.79l22.79-52Z"/><path d="M32,62.61,9.23,10.66a7.22,7.22,0,0,1-1.75,1l0,.11,22.86,52A6.94,6.94,0,0,1,32,62.61"/><path d="M6,12.07a7.74,7.74,0,0,1-1.08.09,7.32,7.32,0,0,1-.95-.07v53A5.89,5.89,0,0,1,4.89,65a6.48,6.48,0,0,1,1.08.1V12.07Z"/><path d="M65.44,12.16a7.9,7.9,0,0,1-1.1-.09V65.14a6.62,6.62,0,0,1,1.1-.1,7,7,0,0,1,1,.09V12.07a7,7,0,0,1-1,.09"/><path d="M65.41,2.38A2.72,2.72,0,1,1,62.7,5.09a2.71,2.71,0,0,1,2.71-2.71m0-2.18A4.89,4.89,0,1,0,70.3,5.09,4.88,4.88,0,0,0,65.41.2"/></g></g></svg>