<!DOCTYPE svg PUBLIC "-//W3C//DTD SVG 1.1//EN" "http://www.w3.org/Graphics/SVG/1.1/DTD/svg11.dtd" [
	<!ENTITY st0 "fill:#010101;">
	<!ENTITY st1 "fill:#808080;">
	<!ENTITY st2 "fill:#FFFFFF;">
	<!ENTITY st3 "fill:#003DA6;">
	<!ENTITY st4 "fill:#DD0031;">
]><svg xmlns="http://www.w3.org/2000/svg" viewBox="0 0 250 90" enable-background="new 0 0 250 90"><path d="M54.6 52.4h-2.7v-23.2c0-6.4-4.9-11-11.6-11-6.7 0-11.6 4.6-11.6 11v23.1h-2.7v-23.1c0-6.4-4.9-11-11.6-11-6.7 0-11.6 4.6-11.6 11v23.1h-2.8v-23.1c0-7.9 6.1-13.7 14.3-13.7 6.1 0 10.9 3.1 13 7.9 2.1-4.8 6.9-7.9 13-7.9 8.3 0 14.3 5.8 14.3 13.7v23.2zm18.9-42.6c7.6 16.9 4.5 37.5-9.4 51.4-13.9 13.9-34.5 17-51.4 9.4 16.9 13.8 41.8 12.9 57.5-2.8 15.9-15.9 17-41.1 3.3-58z"/></svg>