<svg xmlns="http://www.w3.org/2000/svg" viewBox="0 0 175 45.06"><title>Asset 2</title><g id="Layer_2" data-name="Layer 2"><g id="Layer_1-2" data-name="Layer 1"><path d="M37.2.06A15.9,15.9,0,0,0,26.57,4.13,15.93,15.93,0,0,0,0,15.9V32.2a5.32,5.32,0,0,0,10.63,0V15.9a5.31,5.31,0,0,1,10.62,0V32.2a5.32,5.32,0,0,0,10.63,0V15.9a5.32,5.32,0,0,1,10.63,0V32.2a5.32,5.32,0,0,0,10.63,0V15.9A15.91,15.91,0,0,0,37.2.06"/><path d="M153.59,0a18.71,18.71,0,1,0,0,37.41,19.08,19.08,0,0,0,3.78-.38A18.44,18.44,0,0,0,160.92,36a19.22,19.22,0,0,0,3.19-1.72,4.26,4.26,0,0,0,1.17-5.94,4.33,4.33,0,0,0-6-1.15,10.38,10.38,0,0,1-1.74.93,10.59,10.59,0,0,1-1.91.6,10.9,10.9,0,0,1-2.06.2,10.2,10.2,0,0,1-8.79-5c-.22-.5,0-.84.44-.84h22.87a4.28,4.28,0,0,0,4.3-4.27A18.78,18.78,0,0,0,153.59,0m8.32,14.43H145.25c-.49,0-.69-.42-.36-1a10.19,10.19,0,0,1,17.39,0c.33.58.13,1-.37,1"/><path d="M88.67.06a6.38,6.38,0,0,0-6.4,6.35V26a6.38,6.38,0,0,1-5.53,6.29,1.16,1.16,0,0,0-.87.38,1.23,1.23,0,0,0-.37.89,1.27,1.27,0,0,0,.37.9A11.48,11.48,0,0,0,95.06,26h0V6.41A6.37,6.37,0,0,0,88.67.06"/><path d="M85.25,39.88s-1.08.11-1.7.11A14,14,0,0,1,69.49,26V6.41a6.39,6.39,0,0,0-12.78,0V26A19.19,19.19,0,0,0,85.86,42.27a1.29,1.29,0,0,0,.3-.22,1.31,1.31,0,0,0,.33-.53,1.18,1.18,0,0,0,.05-.37,1.23,1.23,0,0,0-.38-.9,1.28,1.28,0,0,0-.91-.37"/><path d="M135.26,7.72A5.4,5.4,0,0,0,132.61.51a5.47,5.47,0,0,0-7.26,2.63L117.54,19.8l-.15.46h0s-.19.61-.52.61-.52-.61-.52-.61h0l-.16-.46-7.8-16.66c0-.06-.06-.14-.09-.19A5.5,5.5,0,0,0,100.92.6a5.43,5.43,0,0,0-2.36,7.32L112.5,34.8a4.89,4.89,0,0,0,3.08,2.44h0a4.83,4.83,0,0,0,.76.13l.4,0h.41a4.45,4.45,0,0,0,.72-.1H118a4.84,4.84,0,0,0,3.24-2.48L135.16,7.92l.1-.2"/><polygon points="170.17 3.99 170.59 3.99 170.59 1.27 171.64 1.27 171.64 0.9 169.12 0.9 169.12 1.27 170.17 1.27 170.17 3.99"/><path d="M173.51,3.51,172.62.9H172V4h.4V2.17c0-.08,0-.19,0-.35V1.39L173.3,4h.42l.89-2.6c0,.16,0,.32,0,.46V4h.4V.9h-.6Z"/></g></g></svg>