<?xml version="1.0" encoding="UTF-8"?>
<svg width="175px" height="45px" viewBox="0 0 175 45" version="1.1" xmlns="http://www.w3.org/2000/svg" xmlns:xlink="http://www.w3.org/1999/xlink">
    <!-- Generator: Sketch 51 (57462) - http://www.bohemiancoding.com/sketch -->
    <title>Group 16</title>
    <desc>Created with Sketch.</desc>
    <defs>
        <polygon id="path-1" points="0.7087 0.9993 30.5387 0.9993 30.5387 46 0.7087 46"></polygon>
    </defs>
    <g id="Page-1" stroke="none" stroke-width="1" fill="none" fill-rule="evenodd">
        <g id="Group-16" transform="translate(0.000000, -1.000000)">
            <path d="M37.1955,1.0644 C33.1095,1.0644 29.3925,2.6114 26.5685,5.1294 C23.7445,2.6114 20.0265,1.0644 15.9405,1.0644 C7.1495,1.0644 0.0005,8.1684 0.0005,16.8994 L0.0005,33.1974 C0.0005,36.1144 2.3775,38.4764 5.3135,38.4764 C8.2485,38.4764 10.6255,36.1144 10.6255,33.1974 L10.6255,16.8994 C10.6255,13.9884 13.0095,11.6214 15.9405,11.6214 C18.8705,11.6214 21.2555,13.9884 21.2555,16.8994 L21.2555,33.1974 C21.2555,36.1144 23.6325,38.4764 26.5685,38.4764 C29.5035,38.4764 31.8815,36.1144 31.8815,33.1974 L31.8815,16.8994 C31.8815,13.9884 34.2645,11.6214 37.1955,11.6214 C40.1255,11.6214 42.5095,13.9884 42.5095,16.8994 L42.5095,33.1974 C42.5095,36.1144 44.8875,38.4764 47.8225,38.4764 C50.7585,38.4764 53.1355,36.1144 53.1355,33.1974 L53.1355,16.8994 C53.1355,8.1684 45.9865,1.0644 37.1955,1.0644" id="Fill-1" fill="#000000"></path>
            <path d="M161.9148,15.4387 L145.2548,15.4387 C144.7618,15.4387 144.5608,15.0197 144.8938,14.4387 C146.6878,11.5227 149.8998,9.5597 153.5858,9.5597 C157.2708,9.5597 160.4818,11.5227 162.2768,14.4387 C162.6088,15.0197 162.4058,15.4387 161.9148,15.4387 M153.5858,1.0087 C143.2028,1.0087 134.7538,9.3987 134.7538,19.7147 C134.7538,30.0297 143.2028,38.4217 153.5858,38.4217 C154.8628,38.4217 156.1388,38.2927 157.3728,38.0397 C158.5838,37.7967 159.7758,37.4277 160.9158,36.9497 C162.0318,36.4807 163.1058,35.9017 164.1128,35.2257 C166.0828,33.9077 166.6048,31.2497 165.2768,29.2907 C163.9488,27.3357 161.2748,26.8127 159.3028,28.1357 C158.7528,28.5047 158.1678,28.8187 157.5628,29.0727 C156.9458,29.3317 156.3038,29.5317 155.6488,29.6657 C154.9798,29.7997 154.2848,29.8687 153.5858,29.8687 C149.8338,29.8687 146.5728,27.8347 144.7998,24.8317 C144.5838,24.3347 144.7928,23.9897 145.2418,23.9897 L168.1108,23.9897 C170.4888,23.9897 172.4148,22.0757 172.4148,19.7147 C172.4148,9.3987 163.9688,1.0087 153.5858,1.0087" id="Fill-3" fill="#000000"></path>
            <path d="M88.6653,1.0644 C85.1353,1.0644 82.2743,3.9064 82.2743,7.4144 L82.2743,27.0164 C82.2743,30.2264 79.8543,32.8924 76.7383,33.3134 C76.3843,33.3134 76.1043,33.4544 75.8723,33.6854 C75.6423,33.9134 75.4983,34.2324 75.4983,34.5824 C75.4983,34.9334 75.6423,35.2514 75.8723,35.4804 C77.9043,37.3154 80.5923,38.4464 83.5513,38.4464 C89.8953,38.4464 95.0573,33.3194 95.0573,27.0194 L95.0573,27.0164 L95.0573,7.4144 C95.0573,3.9064 92.1973,1.0644 88.6653,1.0644" id="Fill-5" fill="#000000"></path>
            <g id="Group-9" transform="translate(56.000000, 0.064000)">
                <mask id="mask-2" fill="white">
                    <use xlink:href="#path-1"></use>
                </mask>
                <g id="Clip-8"></g>
                <path d="M29.2517,40.8123 C29.2517,40.8123 28.1677,40.9213 27.5517,40.9213 C19.7997,40.9213 13.4917,34.6553 13.4917,26.9523 L13.4917,7.3493 C13.4917,3.8423 10.6307,0.9993 7.1007,0.9993 C3.5687,0.9993 0.7087,3.8423 0.7087,7.3493 L0.7087,26.9523 C0.7087,37.4563 9.3097,46.0003 19.8837,46.0003 C23.5367,46.0003 26.9517,44.9773 29.8597,43.2063 C29.9727,43.1483 30.0717,43.0723 30.1647,42.9813 C30.3197,42.8263 30.4337,42.6463 30.4917,42.4513 C30.5287,42.3323 30.5387,42.2053 30.5387,42.0813 C30.5387,41.7573 30.4157,41.4323 30.1647,41.1843 C29.9147,40.9363 29.5777,40.8123 29.2517,40.8123" id="Fill-7" fill="#000000" mask="url(#mask-2)"></path>
            </g>
            <path d="M135.26,8.7248 C136.535,6.0058 135.347,2.7738 132.612,1.5088 C129.874,0.2428 126.621,1.4218 125.347,4.1408 L117.543,20.7988 L117.386,21.2598 L117.384,21.2598 C117.384,21.2598 117.192,21.8698 116.859,21.8698 C116.529,21.8698 116.343,21.2598 116.343,21.2598 L116.337,21.2598 L116.177,20.7988 L108.381,4.1408 C108.353,4.0828 108.316,4.0038 108.285,3.9458 C106.903,1.2798 103.606,0.2318 100.92,1.6048 C98.238,2.9788 97.183,6.2538 98.564,8.9198 L112.503,35.8038 C113.156,37.0548 114.297,37.8948 115.582,38.2368 C115.6,38.2398 115.616,38.2428 115.632,38.2478 C115.882,38.3118 116.135,38.3568 116.392,38.3818 C116.527,38.3938 116.658,38.3978 116.791,38.4018 C116.926,38.4018 117.06,38.4018 117.196,38.3928 C117.443,38.3778 117.684,38.3428 117.924,38.2898 C117.947,38.2848 117.968,38.2818 117.989,38.2748 C119.336,37.9688 120.545,37.1178 121.225,35.8038 L135.164,8.9198 C135.194,8.8618 135.234,8.7848 135.26,8.7248" id="Fill-10" fill="#000000"></path>
            <polygon id="Fill-12" fill="#000000" points="170.1701 4.987 170.5951 4.987 170.5951 2.269 171.6421 2.269 171.6421 1.902 169.1241 1.902 169.1241 2.269 170.1701 2.269"></polygon>
            <path d="M173.5139,4.5104 L172.6209,1.9024 L172.0199,1.9024 L172.0199,4.9874 L172.4199,4.9874 L172.4199,3.1664 C172.4199,3.0924 172.4159,2.9794 172.4129,2.8244 C172.4079,2.6684 172.4079,2.5544 172.4079,2.4784 L172.4079,2.3854 L173.3029,4.9874 L173.7199,4.9874 L174.6059,2.3854 C174.6059,2.5514 174.6049,2.7074 174.6009,2.8534 C174.5989,2.9984 174.5979,3.1034 174.5979,3.1664 L174.5979,4.9874 L174.9999,4.9874 L174.9999,1.9024 L174.4019,1.9024 L173.5139,4.5104 Z" id="Fill-14" fill="#000000"></path>
        </g>
    </g>
</svg>