<!DOCTYPE svg PUBLIC "-//W3C//DTD SVG 1.1//EN" "http://www.w3.org/Graphics/SVG/1.1/DTD/svg11.dtd" [
	<!ENTITY st0 "fill:#010101;">
	<!ENTITY st1 "fill:#808080;">
	<!ENTITY st2 "fill:#FFFFFF;">
	<!ENTITY st3 "fill:#003DA6;">
	<!ENTITY st4 "fill:#DD0031;">
]>
<svg xmlns="http://www.w3.org/2000/svg" viewBox="0 0 250 90" enable-background="new 0 0 250 90;">
<g>
	<path style="&st2;" d="M35.4,78.7c0,3.4-2.4,6.2-5.7,6.6h-0.1c2.9-1.8,1.1-5.2,0.6-7.2c0-0.1,0-0.3,0.1-0.4
		c0.2-0.3-0.2-0.9-0.2-0.9c-0.3-0.3-0.4-2-0.6-2.7c-0.3-1.3,0.6-3.4,0.6-4.2c0-0.7-0.6-1.8-1.6-3c-0.2-0.3-1-6.6-1.6-8.2
		c-0.9-2.2-1.2-1.9-2.3-4.5c-0.9-1.9-0.2-4.6-2.1-10.9c0,0,0.4-0.4,0.4-0.4s-1.5-5.5-2-7c-0.5-1.5-1.4-1.6-1.4-1.6s0-0.6,0-0.8
		c0.1-0.2,1.8-4.8,2-5c0-0.1,2.5-1.8,2.6-1.6c0.2,1.1,1.2,6.8,1.6,7.7c0.4,0.9,1.9,3.7,2.6,5.4c-2.6,0.6-4.6,3-4.6,5.8
		c0,3.3,2.7,6,6,6c2.5,0,4.7-1.6,5.6-3.8V78.7z M8.8,85.4c-3.7,0-6.7-3-6.7-6.7V11.3c0-3.7,3-6.7,6.7-6.7h11.4
		c-2.2,0.8-2.5,1.8-2.6,4.8c-0.4,0-1.2-0.3-0.9,1.5c0,0,0.1,1.2,0.6,1c-0.5,3.2,0.1,3.5-3.3,3.6l-0.2,0.2c-3.4,0.3-4.4-0.1-7.2,5.7
		c0,0-0.7,1.8-1,2.5c-0.7,1.5-2.4,4.7-2.9,6.8c-0.2,0.7-0.5,0.9,0,2c0.7,1.5-0.4,1.9,3.4,1.8v0.9c0,0-1,0.9-1.2,1.4
		c-0.2,0.5-0.8,3.2-0.8,4.4c0.1,3.2,2.7,6,3.5,9.2l1.7,0.2c1,2.2,5.3,8.3,6.2,9.1c0.2,0.6,1.3,1.3,1.9,2c0.5,0.5,3.6,3.9,7.3,6
		c0,0,0.6,1.2,0.9,2.2c-1.2,1,1.1,2.8,1.8,5.7c0,0.4-0.7,0.8,0.4,1.8c-0.1,4.4-1.4,6.8,0.9,8H8.8z M21.6,15.8
		c0.5-0.1,1.2-1.3,1.8-2.5c0.5,0,0.6-0.4,0.8-0.7c0.5-0.8,1-1.5,0.3-1.9C26,8,25.1,6.1,24.2,6.1c-0.3-0.7-0.9-1.1-1.9-1.5h6.4
		c3.7,0,6.7,3,6.7,6.7v32.6c-0.2-0.5-0.4-0.9-0.8-1.4c0-0.9-1-0.9-1.2-1.2c-0.3-0.3,0.2-0.5-1.4-0.8c-0.3-0.2-0.6-2.6-0.6-2.6
		c-0.2-1.6-0.8-2.7-1.7-4.3c-0.4-0.9-0.6-3.5-1.1-4.9c0.3-6.3-1.7-8.1-3.4-9.1c-0.6-0.4-0.9-0.7-1.5-1l0-0.3
		c-0.5-0.4-1.4-0.9-2.2-1.3C21.3,16.6,21.4,16,21.6,15.8 M28.7,2.5H8.8C3.9,2.5,0,6.4,0,11.3v67.4c0,4.9,3.9,8.8,8.8,8.8h19.9
		c4.9,0,8.8-4,8.8-8.8V11.3C37.5,6.4,33.6,2.5,28.7,2.5"/>
	<path style="&st3;" d="M22.9,80.8l-0.2-2.2h-1.6l-0.2,2.2h-2.3l1.9-10.1h3.1l1.9,10.1H22.9z M15.8,80.8h-3.4V70.7h3.3
		c1.7,0,2.5,0.6,2.5,2.4c0,1.1-0.1,2-1.3,2.4v0c1.1,0.2,1.5,1,1.5,2.3C18.5,79.5,17.9,80.8,15.8,80.8 M9.4,80.8l-1.6-5.9l-0.1-0.4h0
		v6.2h-2V70.7h2.3l1.6,5.5l0.1,0.4h0v-5.9h2v10.1H9.4z M27.8,77.4c-1.1-1-0.4-1.4-0.4-1.8c-0.7-2.9-3.1-4.7-1.8-5.7
		c-0.3-1-0.9-2.2-0.9-2.2c-3.6-2.1-6.7-5.5-7.3-6c-0.6-0.7-1.7-1.4-1.9-2c-0.9-0.8-5.2-6.9-6.2-9.1l-1.7-0.2c-0.8-3.2-3.4-6-3.5-9.2
		c0-1.2,0.6-3.9,0.8-4.4c0.2-0.5,1.2-1.4,1.2-1.4v-0.9c-3.8,0.1-2.7-0.3-3.4-1.8c-0.5-1-0.1-1.2,0-2c0.5-2.1,2.2-5.3,2.9-6.8
		c0.2-0.7,0.9-2.5,0.9-2.5c2.8-5.8,3.9-5.3,7.3-5.7l0.2-0.2c3.4-0.1,2.8-0.4,3.3-3.6c-0.5,0.2-0.6-1-0.6-1c-0.3-1.8,0.5-1.5,0.9-1.5
		c0.1-3,0.4-4,2.6-4.8H8.8c-3.7,0-6.7,3-6.7,6.7v67.4c0,3.7,3,6.7,6.7,6.7h19.9C26.4,84.2,27.8,81.8,27.8,77.4"/>
	<path style="&st3;" d="M15.6,76.3h-0.7V79h0.7c0.8,0,0.9-0.4,0.9-1.4C16.4,77,16.3,76.3,15.6,76.3"/>
	<path style="&st3;" d="M15.5,74.7c0.7,0,0.8-0.6,0.8-1.2c0-0.7-0.1-1.1-0.7-1.1h-0.7v2.3H15.5z"/>
	<polygon style="&st3;" points="22,72.4 22,72.2 21.9,72.2 21.9,72.4 21.3,77 22.5,77 	"/>
	<path style="&st4;" d="M23.8,18.1l0,0.3c0.6,0.4,0.9,0.6,1.5,1c1.6,1,3.6,2.8,3.4,9.1c0.5,1.4,0.7,4,1.1,4.9
		c0.8,1.7,1.4,2.8,1.7,4.3c0,0,0.2,2.5,0.6,2.6c1.7,0.4,1.2,0.5,1.4,0.8c0.3,0.3,1.2,0.3,1.2,1.2c0.3,0.4,0.6,0.9,0.8,1.4V11.3
		c0-3.7-3-6.7-6.7-6.7h-6.4c1,0.4,1.6,0.8,2,1.5c0.8,0.1,1.8,1.9,0.3,4.7c0.7,0.5,0.1,1.1-0.3,1.9c-0.1,0.3-0.3,0.7-0.8,0.7
		c-0.6,1.2-1.3,2.4-1.8,2.5c-0.2,0.2-0.3,0.7,0,1C22.3,17.2,23.3,17.6,23.8,18.1"/>
	<path style="&st4;" d="M35.4,48.3c-0.9,2.2-3,3.8-5.6,3.8c-3.3,0-6-2.7-6-6c0-2.8,1.9-5.2,4.6-5.8c-0.7-1.7-2.2-4.5-2.6-5.5
		c-0.4-0.9-1.4-6.6-1.6-7.7c0-0.2-2.6,1.5-2.6,1.6c-0.1,0.1-1.9,4.7-2,5c0,0.2,0,0.8,0,0.8s0.9,0.1,1.4,1.6c0.5,1.5,2,7,2,7
		s-0.4,0.4-0.4,0.4c1.9,6.3,1.2,9.1,2.1,10.9c1.1,2.6,1.4,2.3,2.3,4.5c0.7,1.6,1.4,7.9,1.6,8.2c1,1.3,1.6,2.3,1.6,3
		c0,0.7-0.9,2.9-0.6,4.2c0.2,0.7,0.3,2.4,0.6,2.7c0,0,0.3,0.6,0.2,0.9c0,0.1-0.1,0.2-0.1,0.4c0.6,2,2.4,5.4-0.6,7.2h0.1
		c3.2-0.5,5.7-3.3,5.7-6.6V48.3z"/>
	<polygon style="&st2;" points="11.6,70.7 9.6,70.7 9.6,76.6 9.6,76.6 9.5,76.2 7.9,70.7 5.7,70.7 5.7,80.8 7.7,80.8 7.7,74.5 
		7.7,74.5 7.8,74.9 9.4,80.8 11.6,80.8 	"/>
	<path style="&st2;" d="M15.5,79h-0.7v-2.7h0.7c0.7,0,0.8,0.7,0.8,1.4C16.4,78.7,16.3,79,15.5,79 M14.8,72.4h0.7
		c0.6,0,0.7,0.4,0.7,1.1c0,0.6-0.1,1.2-0.8,1.2h-0.6V72.4z M17,75.5L17,75.5c1.1-0.4,1.3-1.3,1.3-2.4c0-1.7-0.8-2.4-2.5-2.4h-3.3
		v10.1h3.4c2.1,0,2.7-1.3,2.7-3C18.5,76.5,18.1,75.7,17,75.5"/>
	<path style="&st2;" d="M21.3,77l0.6-4.5l0-0.2h0l0,0.2l0.5,4.5H21.3z M23.5,70.7h-3.1l-1.9,10.1h2.3l0.2-2.2h1.6l0.2,2.2h2.4
		L23.5,70.7z"/>
	<path style="&st2;" d="M35.4,78.7c0,3.4-2.4,6.2-5.7,6.6h-0.1c2.9-1.8,1.1-5.2,0.6-7.2c0-0.1,0-0.3,0.1-0.4
		c0.2-0.3-0.2-0.9-0.2-0.9c-0.3-0.3-0.4-2-0.6-2.7c-0.3-1.3,0.6-3.4,0.6-4.2c0-0.7-0.6-1.8-1.6-3c-0.2-0.3-1-6.6-1.6-8.2
		c-0.9-2.2-1.2-1.9-2.3-4.5c-0.9-1.9-0.2-4.6-2.1-10.9c0,0,0.4-0.4,0.4-0.4s-1.5-5.5-2-7c-0.5-1.5-1.4-1.6-1.4-1.6s0-0.6,0-0.8
		c0.1-0.2,1.8-4.8,2-5c0-0.1,2.5-1.8,2.6-1.6c0.2,1.1,1.2,6.8,1.6,7.7c0.4,0.9,1.9,3.7,2.6,5.4c-2.6,0.6-4.6,3-4.6,5.8
		c0,3.3,2.7,6,6,6c2.5,0,4.7-1.6,5.6-3.8V78.7z M8.8,85.4c-3.7,0-6.7-3-6.7-6.7V11.3c0-3.7,3-6.7,6.7-6.7h11.4
		c-2.2,0.8-2.5,1.8-2.6,4.8c-0.4,0-1.2-0.3-0.9,1.5c0,0,0.1,1.2,0.6,1c-0.5,3.2,0.1,3.5-3.3,3.6l-0.2,0.2c-3.4,0.3-4.4-0.1-7.2,5.7
		c0,0-0.7,1.8-1,2.5c-0.7,1.5-2.4,4.7-2.9,6.8c-0.2,0.7-0.5,0.9,0,2c0.7,1.5-0.4,1.9,3.4,1.8v0.9c0,0-1,0.9-1.2,1.4
		c-0.2,0.5-0.8,3.2-0.8,4.4c0.1,3.2,2.7,6,3.5,9.2l1.7,0.2c1,2.2,5.3,8.3,6.2,9.1c0.2,0.6,1.3,1.3,1.9,2c0.5,0.5,3.6,3.9,7.3,6
		c0,0,0.6,1.2,0.9,2.2c-1.2,1,1.1,2.8,1.8,5.7c0,0.4-0.7,0.8,0.4,1.8c-0.1,4.4-1.4,6.8,0.9,8H8.8z M21.6,15.8
		c0.5-0.1,1.2-1.3,1.8-2.5c0.5,0,0.6-0.4,0.8-0.7c0.5-0.8,1-1.5,0.3-1.9C26,8,25.1,6.1,24.2,6.1c-0.3-0.7-0.9-1.1-1.9-1.5h6.4
		c3.7,0,6.7,3,6.7,6.7v32.6c-0.2-0.5-0.4-0.9-0.8-1.4c0-0.9-1-0.9-1.2-1.2c-0.3-0.3,0.2-0.5-1.4-0.8c-0.3-0.2-0.6-2.6-0.6-2.6
		c-0.2-1.6-0.8-2.7-1.7-4.3c-0.4-0.9-0.6-3.5-1.1-4.9c0.3-6.3-1.7-8.1-3.4-9.1c-0.6-0.4-0.9-0.7-1.5-1l0-0.3
		c-0.5-0.4-1.4-0.9-2.2-1.3C21.3,16.6,21.4,16,21.6,15.8 M28.7,2.5H8.8C3.9,2.5,0,6.4,0,11.3v67.4c0,4.9,3.9,8.8,8.8,8.8h19.9
		c4.9,0,8.8-4,8.8-8.8V11.3C37.5,6.4,33.6,2.5,28.7,2.5"/>
	<path d="M22.9,80.8l-0.2-2.2h-1.6l-0.2,2.2h-2.3l1.9-10.1h3.1l1.9,10.1H22.9z M15.8,80.8h-3.4V70.7h3.3c1.7,0,2.5,0.6,2.5,2.4
		c0,1.1-0.1,2-1.3,2.4v0c1.1,0.2,1.5,1,1.5,2.3C18.5,79.5,17.9,80.8,15.8,80.8 M9.4,80.8l-1.6-5.9l-0.1-0.4h0v6.2h-2V70.7h2.3
		l1.6,5.5l0.1,0.4h0v-5.9h2v10.1H9.4z M27.8,77.4c-1.1-1-0.4-1.4-0.4-1.8c-0.7-2.9-3.1-4.7-1.8-5.7c-0.3-1-0.9-2.2-0.9-2.2
		c-3.6-2.1-6.7-5.5-7.3-6c-0.6-0.7-1.7-1.4-1.9-2c-0.9-0.8-5.2-6.9-6.2-9.1l-1.7-0.2c-0.8-3.2-3.4-6-3.5-9.2c0-1.2,0.6-3.9,0.8-4.4
		c0.2-0.5,1.2-1.4,1.2-1.4v-0.9c-3.8,0.1-2.7-0.3-3.4-1.8c-0.5-1-0.1-1.2,0-2c0.5-2.1,2.2-5.3,2.9-6.8c0.2-0.7,0.9-2.5,0.9-2.5
		c2.8-5.8,3.9-5.3,7.3-5.7l0.2-0.2c3.4-0.1,2.8-0.4,3.3-3.6c-0.5,0.2-0.6-1-0.6-1c-0.3-1.8,0.5-1.5,0.9-1.5c0.1-3,0.4-4,2.6-4.8H8.8
		c-3.7,0-6.7,3-6.7,6.7v67.4c0,3.7,3,6.7,6.7,6.7h19.9C26.4,84.2,27.8,81.8,27.8,77.4"/>
	<path d="M15.6,76.3h-0.7V79h0.7c0.8,0,0.9-0.4,0.9-1.4C16.4,77,16.3,76.3,15.6,76.3"/>
	<path d="M15.5,74.7c0.7,0,0.8-0.6,0.8-1.2c0-0.7-0.1-1.1-0.7-1.1h-0.7v2.3H15.5z"/>
	<polygon points="22,72.4 22,72.2 21.9,72.2 21.9,72.4 21.3,77 22.5,77 	"/>
	<path d="M23.8,18.1l0,0.3c0.6,0.4,0.9,0.6,1.5,1c1.6,1,3.6,2.8,3.4,9.1c0.5,1.4,0.7,4,1.1,4.9c0.8,1.7,1.4,2.8,1.7,4.3
		c0,0,0.2,2.5,0.6,2.6c1.7,0.4,1.2,0.5,1.4,0.8c0.3,0.3,1.2,0.3,1.2,1.2c0.3,0.4,0.6,0.9,0.8,1.4V11.3c0-3.7-3-6.7-6.7-6.7h-6.4
		c1,0.4,1.6,0.8,2,1.5c0.8,0.1,1.8,1.9,0.3,4.7c0.7,0.5,0.1,1.1-0.3,1.9c-0.1,0.3-0.3,0.7-0.8,0.7c-0.6,1.2-1.3,2.4-1.8,2.5
		c-0.2,0.2-0.3,0.7,0,1C22.3,17.2,23.3,17.6,23.8,18.1"/>
	<path d="M35.4,48.3c-0.9,2.2-3,3.8-5.6,3.8c-3.3,0-6-2.7-6-6c0-2.8,1.9-5.2,4.6-5.8c-0.7-1.7-2.2-4.5-2.6-5.5
		c-0.4-0.9-1.4-6.6-1.6-7.7c0-0.2-2.6,1.5-2.6,1.6c-0.1,0.1-1.9,4.7-2,5c0,0.2,0,0.8,0,0.8s0.9,0.1,1.4,1.6c0.5,1.5,2,7,2,7
		s-0.4,0.4-0.4,0.4c1.9,6.3,1.2,9.1,2.1,10.9c1.1,2.6,1.4,2.3,2.3,4.5c0.7,1.6,1.4,7.9,1.6,8.2c1,1.3,1.6,2.3,1.6,3
		c0,0.7-0.9,2.9-0.6,4.2c0.2,0.7,0.3,2.4,0.6,2.7c0,0,0.3,0.6,0.2,0.9c0,0.1-0.1,0.2-0.1,0.4c0.6,2,2.4,5.4-0.6,7.2h0.1
		c3.2-0.5,5.7-3.3,5.7-6.6V48.3z"/>
	<polygon style="&st2;" points="11.6,70.7 9.6,70.7 9.6,76.6 9.6,76.6 9.5,76.2 7.9,70.7 5.7,70.7 5.7,80.8 7.7,80.8 7.7,74.5 
		7.7,74.5 7.8,74.9 9.4,80.8 11.6,80.8 	"/>
	<path style="&st2;" d="M15.5,79h-0.7v-2.7h0.7c0.7,0,0.8,0.7,0.8,1.4C16.4,78.7,16.3,79,15.5,79 M14.8,72.4h0.7
		c0.6,0,0.7,0.4,0.7,1.1c0,0.6-0.1,1.2-0.8,1.2h-0.6V72.4z M17,75.5L17,75.5c1.1-0.4,1.3-1.3,1.3-2.4c0-1.7-0.8-2.4-2.5-2.4h-3.3
		v10.1h3.4c2.1,0,2.7-1.3,2.7-3C18.5,76.5,18.1,75.7,17,75.5"/>
	<path style="&st2;" d="M21.3,77l0.6-4.5l0-0.2h0l0,0.2l0.5,4.5H21.3z M23.5,70.7h-3.1l-1.9,10.1h2.3l0.2-2.2h1.6l0.2,2.2h2.4
		L23.5,70.7z"/>
</g>
</svg>
