<!DOCTYPE svg PUBLIC "-//W3C//DTD SVG 1.1//EN" "http://www.w3.org/Graphics/SVG/1.1/DTD/svg11.dtd" [
	<!ENTITY st0 "fill:#010101;">
	<!ENTITY st1 "fill:#808080;">
	<!ENTITY st2 "font-family:'OpenSans';">
	<!ENTITY st3 "font-size:11.9622px;">
	<!ENTITY st4 "fill:#FFFFFF;">
	<!ENTITY st5 "fill:#003DA6;">
	<!ENTITY st6 "fill:#DD0031;">
]>
<svg xmlns="http://www.w3.org/2000/svg" viewBox="0 0 250 90" enable-background="new 0 0 250 90;">
<g>
	<g>
		<path d="M0,56.5l2.5-0.6C4.6,62.8,9,66.8,17.7,66.8c8.2,0,13.6-3.8,13.6-9.8c0-5.8-2.8-8.5-14-11.9c-11.2-3.4-15.2-6-15.2-13.3
			c0-6,5.7-11.1,14.4-11.1c9,0,14,4.6,16,10.8l-2.5,0.8c-2.3-6.2-6.6-9.4-13.6-9.4c-7.4,0-11.8,4.1-11.8,8.8c0,5.9,3.6,8,14,11.2
			c10.7,3.3,15.1,6.2,15.1,13.9c0,7.5-7,12.1-16.2,12.1C7.6,69,2.2,64,0,56.5z"/>
		<rect x="42.4" y="23.4" style="&st1;" width="2.9" height="5.4"/>
		<rect x="42.6" y="35.2" width="2.5" height="33"/>
		<path d="M57.3,60.9V37.3h-6.5v-2.1h6.5v-12h2.5v12H73v2.1H59.7v23.4c0,3.6,1.3,5.7,5.9,5.7c1.3,0,2.5-0.1,3.7-0.4v2.2
			c-1.1,0.2-2.7,0.4-4,0.4C59.5,68.6,57.3,66.2,57.3,60.9z"/>
		<path d="M79.1,60.9V37.3H73v-2.1h6.1v-12h2.5v12H91v2.1h-9.4v23.4c0,3.6,1.3,5.7,5.9,5.7c1.3,0,2.5-0.1,3.7-0.4v2.2
			c-1.1,0.2-2.7,0.4-4,0.4C81.4,68.6,79.1,66.2,79.1,60.9z"/>
		<path d="M94.6,51.7c0-11.6,7.4-17.2,14.6-17.2c7.8,0,13.6,6.1,13.6,16.8c0,0.1,0,0.3,0,0.3H97.1V52c0,8.4,4.9,14.8,12.1,14.8
			c5.5,0,9-3,11.8-7.2l1.8,1.1c-2.9,4.5-7,8.1-13.6,8.1C100.6,68.9,94.6,61.6,94.6,51.7z M120.3,49.6c-0.5-7.9-4.6-13.1-11.1-13.1
			c-5.7,0-11.4,4.3-12.1,13.1H120.3z"/>
		<path d="M129.5,35.2h2.5v7.3c3.3-4.8,7.9-8.2,14.6-7.9l1.1,0.1l-0.5,2.1l-1.1-0.1c-6.1-0.3-11,3.3-14.2,9v22.4h-2.5V35.2z"/>
		<text transform="matrix(1 0 0 1 157.5947 43.1318)" style="&st2; &st3;">™</text>
	</g>
</g>
</svg>
