<svg width="512px" height="512px" viewBox="0 0 512 512" version="1.1" xmlns="http://www.w3.org/2000/svg" xmlns:xlink="http://www.w3.org/1999/xlink">
  <path fill="#010101" d="M467,125.6c-20.2-32.7-47.9-60.3-80.5-80.5l-83.8,84.2c0.1,0,0.3,0.1,0.4,0.2L191.1,241.3l79.9,79.9 l111.7-111.7c0,0.1,0,0.1,0.1,0.2L467,125.6z"/>
  <path fill="#010101" d="M390.3,242.6c0.4,4.4,0.7,8.9,0.7,13.4c0,74.6-60.4,135-135,135c-74.6,0-135-60.4-135-135s60.4-135,135-135h0 V8h0C119,8,8,119,8,256s111,248,248,248s248-111,248-248c0-37.2-8.2-72.5-22.9-104.2L390.3,242.6z"/>
</svg>
