<svg width="640px" height="640px" viewBox="0 0 640 640" version="1.1" xmlns="http://www.w3.org/2000/svg" xmlns:xlink="http://www.w3.org/1999/xlink">
  <path fill="#000" d="M640,0 C640,0 626.229461,261.400799 439.522555,407.252551 L437.674962,507.590002 L306.187185,640 L305.991557,541.019817 L256.828188,496.779865 C221.245716,607.17681 33.7171749,607.17681 33.7171749,607.17681 C33.7171749,607.17681 33.7171749,435.724628 148.88527,385.20022 L105.125567,336.212012 L-2.84217094e-14,336.212012 L135.317414,204.491558 L232.761656,202.300727 C385.259829,17.9043116 640,0 640,0 Z M438,271.051323 C475.555363,271.051323 506,240.488141 506,202.786545 C506,165.08495 475.555363,134.521768 438,134.521768 C400.444637,134.521768 370,165.08495 370,202.786545 C370,240.488141 400.444637,271.051323 438,271.051323 Z"></path>
</svg>
