<svg xmlns="http://www.w3.org/2000/svg" viewBox="0 0 32 32">
  <g fill="#fff">
    <polygon points="17.4937 22.0688 17.4937 13.8128 20.5757 10.7058 18.6407 8.7558 16.1247 11.2908 13.6097 8.7558 11.6757 10.7058 14.7567 13.8128 14.7567 22.0688" />
    <mask fill="white">
      <polygon points="6.00010962 0 26.2496995 0 26.2496995 22.0689 6.00010962 22.0689" />
    </mask>
    <path d="M23.9922,3.0249 C22.7462,1.6449 20.3702,-0.0001 16.1282,-0.0001 C11.8852,-0.0001 9.5072,1.6459 8.2612,3.0249 C6.6342,4.8279 5.8022,7.4319 6.0402,9.9909 C6.3292,13.1069 7.3662,14.6729 8.5962,16.2619 L8.7952,16.5289 C9.3872,17.2729 9.8312,17.8599 9.8312,19.0939 L9.8312,22.0689 L12.5682,22.0689 L12.5682,19.0939 C12.5682,16.8909 11.6302,15.6849 10.9302,14.8039 L10.7602,14.5619 C9.7332,13.2359 8.9892,12.1139 8.7682,9.7339 C8.7052,9.0599 8.6302,6.7179 10.2862,4.8819 C11.5582,3.4729 13.5252,2.7589 16.1292,2.7589 C18.7332,2.7589 20.6982,3.4729 21.9702,4.8819 C23.6262,6.7169 23.5502,9.0589 23.4872,9.7349 C23.2662,12.1139 22.5232,13.2359 21.4962,14.5619 L21.3352,14.7669 C20.6372,15.6519 19.6822,16.8649 19.6822,19.0939 L19.6822,22.0689 L22.4192,22.0689 L22.4192,19.0939 C22.4192,17.8279 22.8852,17.2349 23.4772,16.4839 L23.6502,16.2609 C24.8802,14.6729 25.9212,13.1059 26.2092,9.9919 C26.4482,7.4319 25.6192,4.8279 23.9922,3.0249" />
    <mask fill="white">
      <polygon points="6 32 26.25 32 26.25 0 6 0" />
    </mask>
    <polygon points="9.831 27.035 22.419 27.035 22.419 24.276 9.831 24.276" />
    <polygon points="12.568 32 19.683 32 19.683 29.241 12.568 29.241" />
  </g>
</svg>
