<svg xmlns="http://www.w3.org/2000/svg" viewBox="0 0 32 32">
  <g fill="currentColor">
    <path d="M25.6504,29.458 C23.5294,29.458 21.8024,27.704 21.8024,25.548 C21.8024,23.393 23.5294,21.639 25.6504,21.639 C27.7724,21.639 29.4984,23.393 29.4984,25.548 C29.4984,27.704 27.7724,29.458 25.6504,29.458 M6.3494,29.458 C4.2284,29.458 2.5014,27.704 2.5014,25.548 C2.5014,23.393 4.2284,21.639 6.3494,21.639 C8.4704,21.639 10.1964,23.393 10.1964,25.548 C10.1964,27.704 8.4704,29.458 6.3494,29.458 M12.1524,6.451 C12.1524,4.295 13.8794,2.542 16.0004,2.542 C18.1224,2.542 19.8474,4.295 19.8474,6.451 C19.8474,8.607 18.1224,10.361 16.0004,10.361 C13.8794,10.361 12.1524,8.607 12.1524,6.451 M25.6504,19.097 C24.2654,19.097 22.9864,19.556 21.9414,20.323 L17.2694,16.657 L17.2694,12.773 C20.1644,12.174 22.3494,9.567 22.3494,6.451 C22.3494,2.894 19.5014,0 16.0004,0 C12.4994,0 9.6504,2.894 9.6504,6.451 C9.6504,9.566 11.8364,12.173 14.7304,12.773 L14.7304,16.656 L10.0594,20.323 C9.0134,19.556 7.7344,19.097 6.3494,19.097 C2.8484,19.097 0.0004,21.991 0.0004,25.548 C0.0004,29.105 2.8484,32 6.3494,32 C9.8504,32 12.6984,29.105 12.6984,25.548 C12.6984,24.334 12.3604,23.201 11.7844,22.229 L15.9994,18.921 L20.2154,22.23 C19.6394,23.201 19.3014,24.334 19.3014,25.548 C19.3014,29.105 22.1494,32 25.6504,32 C29.1514,32 32.0004,29.105 32.0004,25.548 C32.0004,21.991 29.1514,19.097 25.6504,19.097" />
  </g>
</svg>
