<svg xmlns="http://www.w3.org/2000/svg" viewBox="0 0 32 32">
  <g fill="currentColor">
    <path d="M4.73714445,20.087 C4.73714445,20.374 4.81286774,20.661 4.95724681,20.916 C5.52870522,21.926 9.58242523,27.318 15.0809456,28.822 C18.5510915,29.772 21.8405111,29.245 24.3656303,27.342 C26.8362288,25.48 28.2517495,22.573 28.2517495,19.275 L28.2527591,19.106 C28.2527591,18.024 28.1235247,16.489 27.7600529,15.719 C27.3683111,14.895 26.8907496,14.748 26.1012081,14.505 C25.6377816,14.362 25.1127668,14.202 24.6200606,13.871 C24.2525502,13.624 23.9355221,13.369 23.6285903,13.124 C23.0611705,12.67 22.6128886,12.312 22.0535459,12.149 C21.5214636,11.993 21.1862619,12.034 20.723845,12.091 C20.0645476,12.172 19.1750514,12.283 18.0220381,11.664 L17.3082199,11.278 L17.3082199,4.067 C17.3082199,3.32 16.6953661,2.712 15.9401525,2.712 C15.1849389,2.712 14.5700658,3.32 14.5700658,4.067 L14.5700658,16.255 C14.5700658,18.672 13.129304,20.48 11.0666017,20.649 C9.42290151,20.785 8.15781778,20.121 7.14211607,19.588 C6.5484455,19.276 5.98607388,18.982 5.60543815,19.003 C4.77954949,19.051 4.73714445,19.914 4.73714445,20.087 M30.9919228,18.984 L30.9888939,18.984 L31,19.305 L31,19.306 C31,23.429 29.18567,27.12 26.030533,29.499 C22.8087595,31.928 18.6682101,32.616 14.354002,31.437 C7.97608189,29.692 3.3680674,23.654 2.56943913,22.24 C2.19688055,21.581 2,20.837 2,20.087 C2,18.004 3.44984855,16.409 5.44793371,16.296 C6.59286983,16.231 7.56515684,16.741 8.42436375,17.192 C9.26539707,17.635 9.99536956,18.017 10.8394318,17.947 C11.5714236,17.887 11.8319117,16.998 11.8319117,16.255 L11.8319117,4.068 C11.8319117,1.824 13.6755214,0 15.9401525,0 C18.2047836,0 20.046374,1.824 20.046374,4.067 L20.046374,9.438 C20.046374,9.43 20.2472931,9.417 20.386624,9.4 C20.9631306,9.329 21.7516624,9.232 22.8309717,9.547 C23.9112906,9.864 24.675591,10.475 25.3500331,11.014 C25.6246562,11.234 25.8851443,11.443 26.1587578,11.627 C26.3122237,11.731 26.6040107,11.82 26.9129617,11.915 C27.8771716,12.211 29.3340877,12.598 30.2387285,14.507 C30.9192285,15.942 30.9919228,18.441 30.9919228,18.984" />
  </g>
</svg>
