<svg xmlns="http://www.w3.org/2000/svg" viewBox="0 0 55.33 40"><defs><style>.cls-1{fill:#010101;}</style></defs><title>Asset 11</title><g id="Layer_2" data-name="Layer 2"><g id="Layer_1-2" data-name="Layer 1"><path class="cls-1" d="M51.62,3.83a3.72,3.72,0,0,0-3.09,1.65l-.17.27H35.21V0H20.12V5.75H7L6.8,5.48a3.72,3.72,0,1,0,0,4.12L7,9.33h7.87l-1.22,1.06c-3.78,3.24-5.83,8.06-6,13.93v.59H1.92V40H17V24.91H11.26V24.3c.15-6.39,2.92-11,8-13.29l.85-.38v4.46H35.21V10.63l.85.38c5.08,2.3,7.85,6.9,8,13.29v.61H38.33V40H53.41V24.91H47.66v-.59c-.12-5.87-2.16-10.68-5.93-13.93L40.5,9.34h7.85l.18.27a3.71,3.71,0,1,0,3.09-5.78ZM13.41,28.5v7.91H5.51V28.5Zm18.21-17H23.71V3.59h7.91Zm18.2,17v7.91h-7.9V28.5Z"/></g></g></svg>