<?xml version="1.0" encoding="utf-8"?>
<!-- Generator: Adobe Illustrator 17.0.2, SVG Export Plug-In . SVG Version: 6.00 Build 0)  -->
<!DOCTYPE svg PUBLIC "-//W3C//DTD SVG 1.1 Tiny//EN" "http://www.w3.org/Graphics/SVG/1.1/DTD/svg11-tiny.dtd">
<svg version="1.1" baseProfile="tiny" id="Layer_1" xmlns="http://www.w3.org/2000/svg" xmlns:xlink="http://www.w3.org/1999/xlink"
	 x="0px" y="0px" width="512px" height="512px" viewBox="0 0 512 512" xml:space="preserve">
<g id="_x37_64-arrow-down_x40_2x.png_3_">
	<path d="M445.884,340.221l0.014-0.02L260.755,161.915l-0.014,0.02C259.509,160.75,257.848,160,256,160
		c-1.848,0-3.509,0.75-4.741,1.935l-0.014-0.02L66.102,340.201l0.014,0.02c-1.293,1.246-2.116,2.98-2.116,4.922
		c0,3.784,3.067,6.857,6.857,6.857c1.848,0,3.509-0.75,4.741-1.935l0.014,0.02L256,176.379l180.388,173.705l0.014-0.02
		c1.232,1.185,2.893,1.935,4.741,1.935c3.79,0,6.857-3.073,6.857-6.857C448,343.201,447.177,341.467,445.884,340.221z"/>
</g>
</svg>
