<?xml version="1.0" encoding="utf-8"?>
<!-- Generator: Adobe Illustrator 17.0.2, SVG Export Plug-In . SVG Version: 6.00 Build 0)  -->
<!DOCTYPE svg PUBLIC "-//W3C//DTD SVG 1.1 Tiny//EN" "http://www.w3.org/Graphics/SVG/1.1/DTD/svg11-tiny.dtd">
<svg version="1.1" baseProfile="tiny" id="Layer_1" xmlns="http://www.w3.org/2000/svg" xmlns:xlink="http://www.w3.org/1999/xlink"
	 x="0px" y="0px" width="512px" height="512px" viewBox="0 0 512 512" xml:space="preserve">
<g id="_x37_64-arrow-down_x40_2x.png_2_">
	<path d="M448,166.857c0-3.784-3.067-6.857-6.857-6.857c-1.848,0-3.509,0.75-4.741,1.935l-0.014-0.02L256,335.62L75.612,161.915
		l-0.014,0.02C74.366,160.75,72.705,160,70.857,160c-3.79,0-6.857,3.074-6.857,6.857c0,1.942,0.823,3.676,2.116,4.922l-0.014,0.02
		l185.143,178.286l0.014-0.02C252.491,351.25,254.152,352,256,352c1.848,0,3.509-0.75,4.741-1.935l0.014,0.02l185.143-178.286
		l-0.014-0.02C447.176,170.533,448,168.799,448,166.857z"/>
</g>
</svg>
