<?xml version="1.0" encoding="utf-8"?>
<!-- Generator: Adobe Illustrator 17.0.2, SVG Export Plug-In . SVG Version: 6.00 Build 0)  -->
<!DOCTYPE svg PUBLIC "-//W3C//DTD SVG 1.1 Tiny//EN" "http://www.w3.org/Graphics/SVG/1.1/DTD/svg11-tiny.dtd">
<svg version="1.1" baseProfile="tiny" id="Layer_1" xmlns="http://www.w3.org/2000/svg" xmlns:xlink="http://www.w3.org/1999/xlink"
	 x="0px" y="0px" width="512px" height="512px" viewBox="0 0 512 512" xml:space="preserve">
<path d="M219.008,242.211c0,0,36.293-2.797,36.293-46.773c0-43.993-29.709-65.438-67.378-65.438H64v250.976h123.924
	c0,0,75.628-0.143,75.628-75.162C263.552,305.813,266.887,242.211,219.008,242.211L219.008,242.211z M128.003,171.829h59.921
	c0,0,16.834,3.942,16.834,29.534c0,25.55-9.875,33.21-21.126,33.21h-55.629V171.829L128.003,171.829z M184.422,339.146h-56.419
	v-62.744h59.921c0,0,25.125-1.818,25.125,32.27C213.049,337.451,194.299,339.146,184.422,339.146L184.422,339.146z M364.475,191.58
	c-91.588,0-91.505,94.87-91.505,94.87s-6.292,95.546,91.505,95.546c0,0,81.503,1.678,81.503-61.066H404.06
	c0,0,1.417,21.423-38.168,21.423c0,0-41.918-3.206-41.918-45.035h123.38C447.353,297.316,460.855,191.58,364.475,191.58
	L364.475,191.58z M401.727,273.904h-78.213c0,0,5.085-35.391,41.878-35.391C402.183,238.513,401.727,273.904,401.727,273.904z
	 M426.685,130.429L298.679,130v35.835l128.007,0.449V130.429z"/>
</svg>
