<?xml version="1.0" encoding="utf-8"?>
<!-- Generator: Adobe Illustrator 17.0.2, SVG Export Plug-In . SVG Version: 6.00 Build 0)  -->
<!DOCTYPE svg PUBLIC "-//W3C//DTD SVG 1.1 Tiny//EN" "http://www.w3.org/Graphics/SVG/1.1/DTD/svg11-tiny.dtd">
<svg version="1.1" baseProfile="tiny" id="Layer_1" xmlns="http://www.w3.org/2000/svg" xmlns:xlink="http://www.w3.org/1999/xlink"
	 x="0px" y="0px" width="512px" height="512px" viewBox="0 0 512 512" xml:space="preserve">
<path d="M256,448.002c-105.868,0-192-86.132-192-192C64,150.132,150.132,64,256,64s192,86.132,192,192.002
	C448,361.87,361.868,448.002,256,448.002z M256,70.524c-102.271,0-185.476,83.205-185.476,185.478
	c0,102.271,83.205,185.476,185.476,185.476s185.476-83.205,185.476-185.476C441.476,153.729,358.271,70.524,256,70.524z"/>
<g>
	<rect x="238.111" y="319.378" fill-rule="evenodd" width="37.281" height="7.456"/>
	<rect x="238.111" y="334.29" fill-rule="evenodd" width="37.281" height="7.456"/>
	<rect x="245.567" y="349.202" fill-rule="evenodd" width="22.369" height="7.456"/>
	<path d="M256.751,161.081c31.66,0,57.414,25.758,57.414,57.414c0,12.174-3.823,23.85-11.06,33.764l-1.223,1.682
		c-1.303,1.718-2.643,3.386-3.99,5.06c-3.437,4.26-6.983,8.665-10.136,14.075c-5.985,10.274-9.699,21.753-10.682,32.883h-40.652
		c-0.736-7.995-3.233-19.929-10.784-32.883c-3.146-5.399-6.684-9.801-10.114-14.057c-0.743-0.921-1.485-1.842-2.221-2.771
		l-2.905-3.99c-7.238-9.914-11.06-21.589-11.06-33.764C199.337,186.838,225.092,161.081,256.751,161.081 M256.751,155.117
		c-35.002,0-63.377,28.375-63.377,63.377c0,13.951,4.565,26.81,12.203,37.281h-0.131c4.893,6.742,10.5,12.509,15.036,20.3
		c9.895,16.98,10.216,31.965,10.245,35.213v0.633h52.048v-0.633c0.029-3.248,0.248-18.232,10.136-35.213
		c4.544-7.791,10.143-13.558,15.044-20.3h-0.029c7.638-10.471,12.204-23.33,12.204-37.281
		C320.129,183.493,291.753,155.117,256.751,155.117L256.751,155.117z"/>
</g>
</svg>
