<?xml version="1.0" encoding="utf-8"?>
<!-- Generator: Adobe Illustrator 17.0.2, SVG Export Plug-In . SVG Version: 6.00 Build 0)  -->
<!DOCTYPE svg PUBLIC "-//W3C//DTD SVG 1.1 Tiny//EN" "http://www.w3.org/Graphics/SVG/1.1/DTD/svg11-tiny.dtd">
<svg version="1.1" baseProfile="tiny" id="Layer_1" xmlns="http://www.w3.org/2000/svg" xmlns:xlink="http://www.w3.org/1999/xlink"
	 x="0px" y="0px" width="512px" height="512px" viewBox="0 0 512 512" xml:space="preserve">
<path d="M256,64C150.11,64,64,150.132,64,256c0,105.866,86.11,192,192,192c105.844,0,192-86.134,192-192
	C448,150.132,361.844,64,256,64z M400,256c0,4.968-0.282,9.89-0.75,14.717c-22.828-7.264-46.64-11.109-71.25-11.109
	c-3.937,0-8.438,0.608-12.563,0.844c-3.375-12.609-7.688-25.008-13.031-37.125c26.109-13.335,49.734-30.773,69.796-52.008
	C389.594,195.132,400,224.335,400,256L400,256z M343.703,142.047c-17.297,18.61-37.828,33.867-60.563,45.398
	c-17.484-27.118-40.126-50.86-66.234-69.914c12.469-3.515,25.546-5.531,39.094-5.531C289,112,319.375,123.296,343.703,142.047
	L343.703,142.047z M173.265,138.319c27.938,16.196,52.172,38.344,70.642,64.781c-39.845,11.226-82.313,11.086-121.595-0.351
	C132.766,176.64,150.578,154.304,173.265,138.319L173.265,138.319z M112,256c0-4.595,0.282-9.141,0.703-13.641
	c23.015,6.562,46.875,10.031,71.297,10.031c27.469,0,54.375-4.477,80.298-12.891c3.842,8.648,7.077,17.46,9.75,26.485
	c-51.235,11.953-96.563,40.405-129.423,81.164C124.235,322.304,112,290.57,112,256z M174.625,374.711
	c27.141-34.57,65.015-58.71,107.86-68.859c0.703,7.172,1.125,14.577,1.125,22.149c0,24.655-4.221,48.469-12.095,71.133
	c-5.109,0.54-10.265,0.868-15.515,0.868C225.812,400,197.828,390.626,174.625,374.711z M317.687,385.913
	c4.313-18.819,6.702-38.134,6.702-57.913c0-9.328-0.562-18.423-1.452-27.259c1.594-0.046,3.468-0.351,5.062-0.351
	c21.234,0,41.765,3.328,61.313,9.845C375.719,343.515,349.985,370.492,317.687,385.913L317.687,385.913z"/>
</svg>
