<?xml version="1.0" encoding="utf-8"?>
<!-- Generator: Adobe Illustrator 17.0.2, SVG Export Plug-In . SVG Version: 6.00 Build 0)  -->
<!DOCTYPE svg PUBLIC "-//W3C//DTD SVG 1.1 Tiny//EN" "http://www.w3.org/Graphics/SVG/1.1/DTD/svg11-tiny.dtd">
<svg version="1.1" baseProfile="tiny" id="Layer_1" xmlns="http://www.w3.org/2000/svg" xmlns:xlink="http://www.w3.org/1999/xlink"
	 x="0px" y="0px" width="512px" height="512px" viewBox="0 0 512 512" xml:space="preserve">
<path d="M256,448.002c-105.868,0-192-86.132-192-192C64,150.132,150.132,64,256,64s192,86.132,192,192.002
	C448,361.87,361.868,448.002,256,448.002z M256,70.524c-102.271,0-185.476,83.205-185.476,185.478
	c0,102.271,83.205,185.476,185.476,185.476s185.476-83.205,185.476-185.476C441.476,153.729,358.271,70.524,256,70.524z"/>
<g>
	<path d="M312.819,159.067L192.733,279.149l-29.184,66.323l66.326-29.184l120.078-120.085L312.819,159.067z M341.391,196.29
		l-14.927,14.923l-28.652-28.652l14.919-14.923L341.391,196.29z M226.424,311.249l-37.951,16.697l-7.398-7.398l15.881-36.09h11.694
		v21.218h23.344L226.424,311.249z M214.658,299.672v-21.218h-12.743l91.666-91.662l28.653,28.653l-84.239,84.231L214.658,299.672z"
		/>
</g>
</svg>
