<?xml version="1.0" encoding="utf-8"?>
<!-- Generator: Adobe Illustrator 17.0.2, SVG Export Plug-In . SVG Version: 6.00 Build 0)  -->
<!DOCTYPE svg PUBLIC "-//W3C//DTD SVG 1.1 Tiny//EN" "http://www.w3.org/Graphics/SVG/1.1/DTD/svg11-tiny.dtd">
<svg version="1.1" baseProfile="tiny" id="Layer_1" xmlns="http://www.w3.org/2000/svg" xmlns:xlink="http://www.w3.org/1999/xlink"
	 x="0px" y="0px" width="512px" height="512px" viewBox="0 0 512 512" xml:space="preserve">
<path d="M166.722,173.516c-41.271,48.283-39.085,120.947,6.653,166.589c45.782,45.688,118.643,47.877,167.023,6.575l-32.896-33.807
	c-23.291,23.242-58.123,27.659-86.151,13.996L405.033,143.57l-31.853-31.789L188.446,295.87
	c-15.609-28.455-11.353-64.861,12.794-88.955L166.722,173.516L166.722,173.516z M397.63,213.458
	c15.218,50.035,2.993,106.612-36.652,146.175c-57.285,57.169-150.17,57.169-207.46,0c-57.289-57.172-57.289-149.859,0-207.029
	c38.318-38.236,95.589-49.209,144.452-36.299l36.266-35.947c-70.568-31.124-156.052-17.832-213.883,39.878
	c-75.138,74.981-75.138,196.544,0,271.529c75.14,74.981,196.959,74.981,272.097,0c57.939-57.822,70.073-141.306,38.654-211.805
	L397.63,213.458L397.63,213.458z"/>
</svg>
