<?xml version="1.0" encoding="utf-8"?>
<!-- Generator: Adobe Illustrator 17.0.2, SVG Export Plug-In . SVG Version: 6.00 Build 0)  -->
<!DOCTYPE svg PUBLIC "-//W3C//DTD SVG 1.1 Tiny//EN" "http://www.w3.org/Graphics/SVG/1.1/DTD/svg11-tiny.dtd">
<svg version="1.1" baseProfile="tiny" id="Layer_1" xmlns="http://www.w3.org/2000/svg" xmlns:xlink="http://www.w3.org/1999/xlink"
	 x="0px" y="0px" width="512px" height="512px" viewBox="0 0 512 512" xml:space="preserve">
<path d="M64,166.401h76.8V448H64V166.401z M345.599,166.401c-47.55,0-66.049,25.6-77.699,51.2l0.899-51.2h-76
	C194,192.001,192,448,192,448h76.799V298.375c0-7.925,0.451-15.975,2.651-21.674c6.399-15.975,25.8-32.576,50.25-32.576
	c31.899,0,49.5,24.674,49.5,60.525V448H448V294.349C447.999,212.325,403.348,166.401,345.599,166.401L345.599,166.401z M140.8,102.4
	c0,21.213-17.2,38.4-38.4,38.4S64,123.613,64,102.4C64,81.188,81.2,64,102.4,64S140.8,81.188,140.8,102.4z"/>
</svg>
