<?xml version="1.0" encoding="utf-8"?>
<!-- Generator: Adobe Illustrator 17.0.2, SVG Export Plug-In . SVG Version: 6.00 Build 0)  -->
<!DOCTYPE svg PUBLIC "-//W3C//DTD SVG 1.1 Tiny//EN" "http://www.w3.org/Graphics/SVG/1.1/DTD/svg11-tiny.dtd">
<svg version="1.1" baseProfile="tiny" id="Layer_1" xmlns="http://www.w3.org/2000/svg" xmlns:xlink="http://www.w3.org/1999/xlink"
	 x="0px" y="0px" width="512px" height="512px" viewBox="0 0 512 512" xml:space="preserve">
<path d="M448,136.926c-14.138,6.279-29.307,10.497-45.251,12.418c16.272-9.748,28.745-25.165,34.654-43.58
	c-15.24,9.044-32.12,15.605-50.057,19.119C372.974,109.559,352.484,100,329.836,100c-43.539,0-78.824,35.287-78.824,78.773
	c0,6.185,0.703,12.183,2.039,17.948c-65.483-3.281-123.579-34.631-162.453-82.288c-6.753,11.621-10.644,25.164-10.644,39.597
	c0,27.321,18.193,51.406,39.341,65.558c-12.918-0.421-31.415-3.984-31.415-9.886c0,0.374,0,0.703,0,1.031
	c0,38.144,22.882,69.964,58.918,77.226c-6.611,1.782-15.696,2.766-22.894,2.766c-5.088,0-11.079-0.516-15.907-1.453
	c10.035,31.304,38.615,54.077,73.079,54.733c-26.961,21.088-61.228,33.693-98.131,33.693c-6.376,0-12.777-0.375-18.943-1.077
	C98.886,398.924,140.232,412,184.731,412c144.987,0,224.184-120.012,224.184-224.089c0-3.422-0.094-6.843-0.233-10.215
	C424.11,166.588,437.45,152.719,448,136.926z"/>
</svg>
