<?xml version="1.0" encoding="utf-8"?>
<!-- Generator: Adobe Illustrator 17.0.2, SVG Export Plug-In . SVG Version: 6.00 Build 0)  -->
<!DOCTYPE svg PUBLIC "-//W3C//DTD SVG 1.1 Tiny//EN" "http://www.w3.org/Graphics/SVG/1.1/DTD/svg11-tiny.dtd">
<svg version="1.1" baseProfile="tiny" id="Layer_1" xmlns="http://www.w3.org/2000/svg" xmlns:xlink="http://www.w3.org/1999/xlink"
	 x="0px" y="0px" width="512px" height="512px" viewBox="0 0 512 512" xml:space="preserve">
<path d="M256,448.002c-105.868,0-192-86.132-192-192C64,150.132,150.132,64,256,64s192,86.132,192,192.002
	C448,361.87,361.868,448.002,256,448.002z M256,70.524c-102.271,0-185.476,83.205-185.476,185.478
	c0,102.271,83.205,185.476,185.476,185.476s185.476-83.205,185.476-185.476C441.476,153.729,358.271,70.524,256,70.524z"/>
<g>
	<path d="M235.54,187.8h-68.201c-7.38,0-13.64,6.107-13.64,13.64v129.582c0,7.533,6.26,13.64,13.64,13.64h68.201
		c7.38,0,13.64-6.107,13.64-13.64V201.441C249.18,193.908,242.919,187.8,235.54,187.8z M242.36,331.022
		c0,3.757-3.144,6.82-6.82,6.82h-68.201c-3.676,0-6.82-3.064-6.82-6.82V201.441c0-3.763,3.144-6.82,6.82-6.82h68.201
		c3.676,0,6.82,3.057,6.82,6.82V331.022z"/>
	<path d="M167.339,317.382h68.201V215.081h-68.201V317.382z M174.159,221.901h54.561v88.661h-54.561V221.901z"/>
	<rect x="194.619" y="324.202" width="13.64" height="6.82"/>
	<rect x="187.799" y="201.441" width="6.82" height="6.82"/>
	<rect x="201.439" y="201.441" width="13.64" height="6.82"/>
	<path d="M344.661,167.34H208.259c-7.38,0-13.64,6.107-13.64,13.64h6.82c0-3.763,3.144-6.82,6.82-6.82h136.402
		c3.676,0,6.82,3.057,6.82,6.82v95.481c0,3.757-3.144,6.82-6.82,6.82H256v6.82h20.46v6.82H256v6.82h75.021v-6.82H283.28v-6.82
		h61.381c7.38,0,13.64-6.107,13.64-13.64V180.98C358.301,173.447,352.041,167.34,344.661,167.34z"/>
</g>
</svg>
