<?xml version="1.0" encoding="utf-8"?>
<!-- Generator: Adobe Illustrator 17.0.2, SVG Export Plug-In . SVG Version: 6.00 Build 0)  -->
<!DOCTYPE svg PUBLIC "-//W3C//DTD SVG 1.1 Tiny//EN" "http://www.w3.org/Graphics/SVG/1.1/DTD/svg11-tiny.dtd">
<svg version="1.1" baseProfile="tiny" id="Layer_1" xmlns="http://www.w3.org/2000/svg" xmlns:xlink="http://www.w3.org/1999/xlink"
	 x="0px" y="0px" width="512px" height="512px" viewBox="0 0 512 512" xml:space="preserve">
<path d="M256,448.002c-105.868,0-192-86.132-192-192C64,150.132,150.132,64,256,64s192,86.132,192,192.002
	C448,361.87,361.868,448.002,256,448.002z M256,70.524c-102.271,0-185.476,83.205-185.476,185.478
	c0,102.271,83.205,185.476,185.476,185.476s185.476-83.205,185.476-185.476C441.476,153.729,358.271,70.524,256,70.524z"/>
<g>
	<path d="M329.06,174.823l-5.89,5.882l18.138,18.471h-32.986c-26.985,0-43.49,34.025-59.456,54.24
		c-15.411,19.533-29.982,51.291-52.94,51.291h-41.397v8.118h40.921c27.001,0,42.364-34.025,58.33-54.24
		c15.411-19.533,29.887-51.291,52.861-51.291h34.595l-18.059,18.471l5.882,5.882l28.412-28.412L329.06,174.823z"/>
	<path d="M323.177,286.235l18.059,18.471h-34.595c-19.454,0-32.804-23.006-45.821-41.667c-0.166,0.23-4.059,6.025-4.059,6.025
		c13.604,19.343,29.157,43.759,51.497,43.759h32.978l-18.067,18.471l5.89,5.882l28.412-28.412l-28.412-28.412L323.177,286.235z"/>
	<path d="M241.81,248.96c0.175-0.23,4.297-6.025,4.297-6.025c-13.619-19.343-29.474-43.76-51.798-43.76h-39.78v8.118h41.397
		C215.38,207.294,228.793,230.299,241.81,248.96z"/>
</g>
</svg>
